<?xml version="1.0" encoding="utf-8"?>
<!-- Generator: Adobe Illustrator 14.0.0, SVG Export Plug-In  -->
<!DOCTYPE svg PUBLIC "-//W3C//DTD SVG 1.1//EN" "http://www.w3.org/Graphics/SVG/1.1/DTD/svg11.dtd" [
	<!ENTITY ns_flows "http://ns.adobe.com/Flows/1.0/">
]>
<svg version="1.1"
	 xmlns="http://www.w3.org/2000/svg" xmlns:xlink="http://www.w3.org/1999/xlink" xmlns:a="http://ns.adobe.com/AdobeSVGViewerExtensions/3.0/"
	 x="0px" y="0px" width="601px" height="547px" viewBox="-0.87 -0.452 601 547" enable-background="new -0.87 -0.452 601 547"
	 xml:space="preserve">
<defs>
</defs>
<g>
	<defs>
		<path id="SVGID_1_" d="M285.579,214.161c0,0-9.11,20.656-5.002,46.258c4.813,23.248,14.989,40.914,37.779,56.079
			c0,0,14.394,7.971,32.31,5.502c13.462-1.543,27.27-10.802,31.021-23.7c0,0,9.29-21.519-7.014-34.012c0,0,0.979,13.76-11.11,18.979
			c0,0-17.463,6.04-26.652-10.469c0,0-9.2-17.091,13.925-34.626c0,0,21.54-13.747,42.015,4.784c0,0,33.257,29.556,4.146,83.269
			c0,0-26.387,50.188-87.206,46.745c0,0-64.547-0.569-102.553-69.37c2.11,50.14,52.024,109.038,128.45,109.129
			c48.597,1.389,132.913-35.55,133.808-132.627c0,0,4.938-87.283-79.241-114.386c0,0-10.716-3.139-25.689-3.139
			C340.263,162.576,304.745,170.837,285.579,214.161"/>
	</defs>
	<clipPath id="SVGID_2_">
		<use xlink:href="#SVGID_1_"  overflow="visible"/>
	</clipPath>
	
		<linearGradient id="SVGID_3_" gradientUnits="userSpaceOnUse" x1="-113.3223" y1="564.8696" x2="-107.8733" y2="564.8696" gradientTransform="matrix(16.0469 -13.8587 -13.8587 -16.0469 9904.5801 7854.0391)">
		<stop  offset="0" style="stop-color:#F29600"/>
		<stop  offset="1" style="stop-color:#8DC21F"/>
	</linearGradient>
	<polygon clip-path="url(#SVGID_2_)" fill="url(#SVGID_3_)" points="82.808,270.04 360.281,30.402 598.859,306.654 321.389,546.292 
			"/>
</g>
<path fill="#F29600" d="M0.547,138.451c-1.7,1.085,0.91,1.814,3.057,2.599l1.482-3.302L0.547,138.451z"/>
<path fill="#F29600" d="M10.843,138.046c1.623-1.29,3.241-2.594,4.93-3.64c-1.224,0.551-2.466,1.112-3.619,1.836
	c-4.342-1.102,0.242-3.53,1.799-4.222C7.079,133.563,11.764,136.123,10.843,138.046"/>
<path fill="#F29600" d="M20.897,134.955c3.352,0.165,2.464-1.913,1.003-2.522C21.65,133.305,19.447,134.356,20.897,134.955"/>
<path fill="#F29600" d="M166.882,263.308c-0.026-1.045-0.234-2.158,0.354-2.309C166.233,260.313,165.688,260.313,166.882,263.308"/>
<polygon fill="#F29600" points="167.236,260.999 167.851,261.462 167.417,260.994 "/>
<path fill="#F29600" d="M152.337,187.973c-3.765-2.115-4.424-4.523-7.377-7.023l0.41-3.345c-3.419-2.535-2.833,0.109-5.843-1.237
	c-1.221-4.049-8.173-8.594-9.295-9.977c-0.104-1.788,2.229-0.099,3.145-0.165c-4.044-2.937-5.521-0.816-9.998-4.869l0.327-0.596
	c-13.106-6.979-27.691-18.603-43.547-23.277c0.982,0.577,0.458,0.966,0.654,1.636c-15.425-6.686-35.209-11.089-48.373-5.558
	c9-0.535,22.148,6.787,31.846,5.207c2.463,2.927,8.104,2.24,8.418,5.119c10.783,6.396,17.588,4.674,27.903,11.741
	c1.155,1.405-0.234,1.956-0.562,3.243c-2.871-1.434-5.6-3.076-8.575-4.339c1.514,1.221,2.865,2.708,4.254,4.105
	c-2.538-0.622-7.367-4.419-9.12-2.737c8.652,1.564,17.881,11.395,25.429,13.616c-2.2-2.711-6.082-4.754-9.094-7.492
	c-0.915-1.759-2.932-3.802-2.032-4.762c11.656,4.033,18.238,11.978,27.461,19.938c2.424,1.924,5.007,5.193,4.499,6.404
	c-1.623-1.189-1.383,0.62-2.887-0.154c3.613,2.432,3.448-2.772,7.33,2.235l-3.669,2.288c5.042-1.216,4.32,6.292,9.104,7.939
	c-0.314,2.315-2.924,0.687-5.164-1.798c1.897,3.416,4.039,2.086,5.928,4.549l-4.643,0.056c4.73,0.245,3.036,5.023,3.259,7.165
	c0.822-0.42,1.913-3.488,4.222-0.104c0.721,1.668-0.545,1.503-0.697,2.147c0.838-0.389,2.996-0.17,4.632,1.945
	c-0.66,1.139-2.496-0.37-3.565,0.271c1.227,1.591,2.36,2.765,2.4,4.534c2.881,2.328,1.258-1.181,3.616-0.178
	c2.381,5.039-3.1,2.865-4.086,6.031c-3.672-2.301-7.114-6.233-9.168-7.377l5.289,5.672c-1.389,0.495,1.035,5.693-2.423,3.176
	c3.134,6.848,8.913,13.545,13.332,19.608c-0.032-1.155-0.412-2.477,0.487-2.706c2.554,2.881,0.75,3.387,0.205,4.598
	c2.115,2.043,4.116,0.644,6.566,1.383c0.812,6.212,2.246,6.393,1.756,12.326l2.038-1.362c-0.208,4.119,3.307,2.927,3.688,7.127
	c-0.349,0.391-1.575-0.71-2.564-1.516c2.184,2.753-0.519,3.82,1.785,6.388l-3.557-1.163c1.227,2.36,3.677,5.641,1.035,5.386
	c4.47,2.984,7.29,11.081,11.61,15.641l-2.038,0.644c3.815,1.464,5.552,10.297,9.852,10.877l-0.417,0.872l5.813,3.581
	c1.328,2.522-1.694,3.672-0.899,3.294c3.458,3.922,6.068,8.077,7.154,11.786c2.887-0.713,7.269,8.981,10.31,13.015
	c40.549,59.628,43.476,45.362,64.762,53.146c12.01,4.885-3.395-8.13,0.687-7.715c-4.119-2.768-5.252-1.395-9.458-3.763
	c-2.786-2.521-2.567-5.528-3.983-8.854v2.889c-5.028-1.053-1.996-2.889-6.479-3.049l2.371-3.102c-2.24,0.883-3.82-2.57-4.235-4.193
	l-2.668,1.373c-1.341-3.118-2.304-4.959-1.341-7.343l-1.416,2.011c0.096-1.729,28.816,17.922,34.222,17.586
	c-0.977-0.271-39.535-25.822-40.56-27.462l0.609-0.931c-2.246-1.645-3.619-0.995-3.041-2.555c1.33,0.782-5.709-5.385-4.592-5.741
	c-9.934-4.65,0.463,5.741-5.906-2.501l1.301-0.872l-2.919-1.192l0.016-3.469c-6.644,0.042-7.825-12.739-13.672-16.873
	c-1.809-2.06-0.843-6.678-4.134-11.063l-1.825,1.702c-0.812-5.427-6.784-17.304-3.467-23.471c-3.355-2.064-0.271,0.548-1.961,1.474
	c-5.656-4.661-2.375-7.199-2.807-11.057c-3.028-3.291,0.708,3.357-2.003,2.152c-1.362-6.75-5.111-3.411-7.319-11.786
	c0.878-1.368,1.793,1.554,2.985,1.924c-4.821-4.19-8.128-15.13-12.808-23.338c-2.993-10.078-11.063-25.613-16.937-36.827
	l-0.843,0.277c-1.357-5.595-6.425-8.966-9.666-14.383L152.337,187.973z"/>
<path fill="#F29600" d="M83.021,156.994l-0.202,2.283l5.188,1.423C87.035,158.165,85.37,158.875,83.021,156.994"/>
<polygon fill="#F29600" points="87.123,151.96 84.202,151.415 88.256,153.594 "/>
<path fill="#F29600" d="M136.521,200.27l-0.208-0.734c-2.668-2.283-5.209-4.637-8.013-6.731
	C131.176,195.143,133.743,197.759,136.521,200.27"/>
<path fill="#F29600" d="M164.853,263.873c-1.548-0.594-1.857-2.355-3.057-3.161l3.057,3.962V263.873z"/>
<path fill="#F29600" d="M181.808,312.156c4.31-0.319,1.753,2.708,3.466-0.873C182.973,308.936,183.356,312.156,181.808,312.156"/>
<path fill="#F29600" d="M191.766,317.365c-0.769-1.517-1.7-1.857-2.615-2.262C188.845,317.732,190.508,316.7,191.766,317.365"/>
<path fill="#F29600" d="M204.068,304.456c-0.322-0.389-1.21,0.399-0.529-0.186C204.068,304.243,204.5,304.291,204.068,304.456"/>
<path fill="#F29600" d="M180.403,330.678c0.021-0.102,0.021-0.208,0.104-0.282c-0.104,0.016-0.202,0.016-0.327,0.074
	L180.403,330.678z M203.653,306.611c0.032-0.059-0.045-0.074-0.197-0.074C203.544,306.552,203.582,306.606,203.653,306.611
	 M164.188,313.874v-0.058c-0.059-0.032-0.152-0.054-0.312-0.054C163.876,313.816,163.985,313.853,164.188,313.874 M208.36,303.599
	c-2.049-2.853-0.984-5.624-0.665-9.844c-0.812-0.873-2.195-1.74-2.238-3.012c-2.682-3.214-4.446-9.248-10.086-10.052
	c0.059,0.58-0.529,1.24-0.827,1.33l0.09-0.367l-0.718,0.767c-0.338-0.011,0.271-1.245,0.577-1.25
	c-1.774-0.895-3.693-0.612-5.486-1.304c-0.322,1.517-0.998-0.134-1.227,1.526c-0.053-0.281,0.037-0.388,0.099-0.702
	c-1.341,0.804-1.304,0.847-2.573-1.133c-5.454-1.277-10.549,1.825-14.689,4.72c-4.039,3.592-5.712,8.662-6.696,13.318
	c2.125,1.463,0.681,1.984,2.583,3.299l-0.742-0.25c0.966,0.878-0.287,0.75-1.352,1.484c0.852,0.133,0.192,0.356,1.636,0.458
	c1.139,0.446-2.094,0.202-1.521,0.745c-0.458-0.032,0.862,0.085,0.38,0.116c1.599,1.277-0.761-0.361-2.293,1.049
	c0.54,2.208,1.963,4.076,1.455,6.061c-0.082-0.091,1.003-0.352,1.081-0.149c-2.214,0.575,0.734,0.484-0.077,0.99
	c-0.495,0.063-0.66-0.064-0.883-0.117c-0.734,1.075,0.769,1.458,0,2.533c1.128,0.5-0.396,2.032,0.883,2.128
	c-0.883,0.197-0.468,0.596-0.785,0.958c2.703-0.602-0.218,1.884,1.761,1.809l-0.487,0.202c1.357,1.799,2.126,4.422,4.784,5.183
	c1.075,0.714,0.545,3.735,2.61,3.661c0.42-0.191,0.606-0.809,0.934-0.894c0.303,0.255-0.458,0.702-0.535,1.074
	c1.226-0.553,1.253,1.16,2.096,1.629c0.312-0.319,0.617-0.319,0.867-0.947c0.093,2.176,2.408,0.404,2.892,2.086
	c0.46-2.427,0.905-0.995,1.429-1.458c0.157,0.139,0,0.776-0.13,1.149c0.833-0.075,1.227-0.075,2.001,0.809
	c0.495-0.159,0.787-1.432,1.218-1.017c0.176,1.756,1.035,0.282,1.466,0.895c0-1.485,0.644-2.613,1.085-1.985l-0.16,2.044
	c1.45-1.251,4.164,0.846,5.375-2.214l0.441,1.139c1.458-1.687,3.688-1.282,4.103-4.107c0.774,0.383,1.57,0.303,1.966,0
	c-0.109-1.235,0.157-1.256-0.577-2.853c0.072-0.176,0.785,0.469,1.117,0.724c0.74-0.197,2.533,0.532,1.586-1.298l0.718,0.681
	c-0.312-1.197-0.718-2.612,0.545-2.405c-0.578-0.724-0.453-1.362-1.549-1.852c-0.016-0.33,1.461,0.862,0.737,0.048l1.019,1.048
	c1.176-0.968,1.062-2.538,1.003-4.022c1.82,0.404,0.277-1.256,1.447-1.586c-0.78-0.713,0.812-1.096-1.17-1.995l0.952,0.239
	c0.367-0.531,0.426-1.287,1.048-1.989c0.354-0.405-1.107-0.628-1.61-1.043l1.043,0.138c-0.54-0.415-1.844-0.696-2.812-0.894v-0.149
	c0.173-0.133-0.109-0.233,0.426-0.394c0.542,0.293,1.567,0.586,2.935,0.979c0.399-0.5-1.982-1.097-0.468-1.33
	c0.383-0.367-0.059-0.708-1.378-0.725c0.442,0.075,0.758-0.292,1.378-0.016c-0.059-0.324-0.163-0.495-0.74-0.654
	c0,0.053-0.16,0.133-0.109,0.191c-0.883-0.096-0.966-0.361-1.961-0.319v-0.276v-0.043c0.838-0.059,1.431,0.267,1.961,0.043
	l-1.961-0.426c0-0.846-0.04-1.687-0.17-2.512c-0.021-0.293-0.109-0.574-0.136-0.915c0.306,0.313,0.78,0.479,1.684,0.622
	C204.122,303.727,208.36,303.599,208.36,303.599 M198.798,293.553c-0.088,0.617-0.229,1.144-0.311,1.665
	c-0.562-0.931-1.264-1.793-1.966-2.612c0.125-0.128,0.29-0.245,0.479-0.399l1.003-0.841c-0.191,0.527-0.843,1.229-1.024,1.634
	c0.681-0.563,0.593,0.298,1.509-0.463c-0.328,0.441-0.527,0.495-0.785,0.761c0.035,0.404,1.711-0.591,1.642-0.042L198.798,293.553z
	 M201.583,306.664c0.016,0.043,0.016,0.08,0,0.139V306.664z M201.583,307.654c0.152,0.148,0.239,0.213,0,0.313V307.654z
	 M200.389,299.066c-0.054-0.128-0.115-0.33-0.163-0.479c0.163,0,0.354,0.032,0.538,0.032
	C201.038,298.651,200.716,298.858,200.389,299.066"/>
<path fill="#F29600" d="M204.257,304.961c-0.801,0.17-1.227,0.5-2.299,0.383C202.738,305.27,203.544,305.025,204.257,304.961"/>
<path fill="#F29600" d="M195.534,310.623c0.25,0.075-0.295,0-0.463-0.048c-0.021-0.048-0.644-0.282-0.229-0.25
	C194.842,310.41,195.238,310.527,195.534,310.623"/>
<path fill="#F29600" d="M194.704,311.639c-0.623-0.304-1.091-0.75-1.123-0.883L194.704,311.639z"/>
<path fill="#F29600" d="M191.665,311.198c-0.599-0.277-0.867-0.394-0.827-0.5C191.191,310.857,191.343,310.985,191.665,311.198"/>
<path fill="#F29600" d="M193.046,312.017c0,0.074-0.431-0.096-0.812-0.256C192.807,312.043,191.995,311.432,193.046,312.017"/>
<path fill="#F29600" d="M190.335,312.299c0.059,0.068,0.447,0.526-0.187,0.011C190.585,312.645,189.571,311.548,190.335,312.299"/>
<path fill="#F29600" d="M190.654,313.608c-0.043-0.021-0.146-0.122-0.043,0.069c-0.279-0.267-0.575-0.671-0.575-0.734
	L190.654,313.608z"/>
<polygon fill="#F29600" points="176.955,310.575 177.341,310.559 176.644,310.804 "/>
<path fill="#F29600" d="M177.144,301.242c-0.37-0.292,0.62,0.202,0.74,0.229C177.929,301.587,177.067,301.061,177.144,301.242"/>
<polygon fill="#F29600" points="177.498,294.564 177.421,294.596 176.463,293.468 "/>
<path fill="#F29600" d="M242.039,298.858c0.74,5.837-2.876,11.164-8.12,11.84c-5.236,0.734-10.073-3.443-10.842-9.302
	c-0.737-5.906,2.876-11.211,8.117-11.897C236.444,288.817,241.276,292.978,242.039,298.858"/>
<path fill="#F29600" d="M244.7,298.651c-0.343-0.24-1.28,0.361-0.562-0.096C244.7,298.523,245.131,298.523,244.7,298.651"/>
<path fill="#F29600" d="M245.399,298.73c0-0.079-0.056-0.079-0.239-0.079C245.269,298.651,245.317,298.699,245.399,298.73
	 M229.255,316.529c0-0.059,0.075-0.138,0.075-0.223c-0.075,0-0.13,0.042-0.194,0.063L229.255,316.529z M217.23,304.088
	c0-0.021,0-0.021,0.032-0.021c-0.109,0-0.223-0.063-0.333-0.063C216.876,304.067,216.98,304.088,217.23,304.088 M247.552,287.667
	c-0.718-0.638-1.429-0.952-1.357-2.064c-2.033-2.282-2.344-3.938-6.893-4.347c0,0.601-0.538,1.25-0.806,1.415l0.165-0.468
	l-0.654,0.889c-0.279,0,0.266-1.203,0.572-1.32c-1.384-0.648-2.871-0.383-4.305-0.957c-0.266,1.5-0.737-0.049-0.947,1.596
	c0-0.282,0.016-0.383,0.109-0.687c-1.085,0.761-1.069,0.825-2.011-1.165c-4.31-1.267-8.245,1.378-11.464,3.49
	c-3.161,2.89-2.463,4.587-3.083,8.057c2.179,1.239,0.843,1.575,2.818,2.649l-0.769-0.224c0.984,0.734-0.264,0.538-1.253,0.958
	c0.838,0.181,0.179,0.298,1.591,0.447c1.165,0.351-2.054,0.074-1.45,0.468c-0.468-0.021,0.849,0.091,0.37,0.091
	c1.625,0.984-0.764-0.271-2.251,0.729c0.529,1.629,1.947,2.938,1.33,4.428c-0.053-0.075,1.056-0.298,1.133-0.154
	c-2.272,0.559,0.676,0.282-0.162,0.707c-0.458,0.096-0.644,0-0.889,0c-0.764,0.836,0.703,1.012-0.083,1.862
	c1.056,0.267-0.599,1.564,0.676,1.538c-0.899,0.282-0.545,0.506-0.899,0.841c2.692-0.739-0.375,1.56,1.498,1.208l-0.412,0.213
	c1.008,1.362,1.482,3.416,3.682,3.772c0.841,0.399,0.026,3.134,1.809,2.836c0.386-0.159,0.577-0.745,0.873-0.883
	c0.173,0.224-0.487,0.724-0.588,1.059c1.056-0.66,0.915,0.883,1.58,1.271c0.293-0.389,0.532-0.415,0.734-0.995
	c-0.098,2.033,1.908,0.176,2.126,1.74c0.545-2.373,0.812-1.054,1.242-1.564c0.104,0.128-0.05,0.745-0.252,1.203
	c0.71-0.171,0.987-0.171,1.554,0.654c0.354-0.197,0.66-1.484,0.981-1.038c0.027,1.708,0.75,0.202,1.051,0.819
	c0-1.441,0.519-2.597,0.812-1.989l-0.152,2.011c1.128-1.256,3.187,0.937,3.972-1.99l0.375,1.149c0.942-1.606,2.775-0.979,2.813-3.56
	c0.604,0.426,1.301,0.463,1.535,0.234c-0.234-1.117-0.037-1.117-0.795-2.581c0.029-0.187,0.665,0.511,0.993,0.788
	c0.583-0.048,2.179,0.766,1.149-0.895l0.692,0.665c-0.37-1.069-0.99-2.293,0.144-1.932c-0.566-0.638-0.601-1.191-1.646-1.75
	c-0.088-0.261,1.429,0.957,0.649,0.154l1.078,1.011c0.915-0.606,0.644-1.852,0.431-2.942c1.689,0.463,0.114-0.873,1.194-1.027
	c-0.814-0.596,0.646-0.724-1.298-1.495l0.915,0.245c0.301-0.314,0.349-0.836,0.926-1.314c0.3-0.256-1.155-0.469-1.623-0.777
	l0.998,0.149c-0.468-0.313-1.466-0.468-2.376-0.639c0.021-0.122,0.109-0.234,0.152-0.33c0.591,0.149,1.548,0.373,2.682,0.639
	c0.524-0.351-1.945-0.819-0.458-0.894c0.375-0.256-0.021-0.479-1.373-0.532c0.431,0.063,0.745-0.128,1.373,0
	c-0.021-0.17-0.141-0.287-0.676-0.41c0,0.011-0.157,0.064-0.13,0.123c-0.458-0.059-0.737-0.112-1.003-0.154
	c0-0.048,0.042-0.112,0.088-0.191c0.349,0.016,0.636,0.016,0.915-0.048l-0.867-0.106c0.186-0.703,0.316-1.331,0.479-1.99
	c1.173-1.054-1.666,0.133,1.484,1.819C247.339,295.123,250.058,295.996,247.552,287.667 M241.771,288.525l-0.016-0.006l0.093-0.096
	C241.802,288.423,241.771,288.519,241.771,288.525"/>
<path fill="#F29600" d="M244.881,299.012c-0.828,0.128-1.259,0.394-2.36,0.298L244.881,299.012z"/>
<path fill="#F29600" d="M236.38,302.056c0.266,0.074-0.295-0.074-0.415-0.128c-0.075-0.053-0.718-0.255-0.312-0.159
	C235.705,301.774,236.085,301.928,236.38,302.056"/>
<path fill="#F29600" d="M235.758,302.338c-0.655-0.267-1.139-0.569-1.216-0.671L235.758,302.338z"/>
<path fill="#F29600" d="M232.97,301.333c-0.545-0.277-0.801-0.437-0.801-0.437C232.512,301.061,232.637,301.172,232.97,301.333"/>
<path fill="#F29600" d="M234.385,302.136c0,0.068-0.338-0.134-0.742-0.367C234.177,302.067,233.339,301.524,234.385,302.136"/>
<path fill="#F29600" d="M232.512,301.268c0.021,0.032,0.458,0.432-0.162-0.096C232.778,301.524,231.701,300.566,232.512,301.268"/>
<path fill="#F29600" d="M233.185,302.13c-0.026-0.063-0.114-0.128,0,0.006c-0.191-0.208-0.545-0.639-0.567-0.666L233.185,302.13z"/>
<polygon fill="#F29600" points="228.752,301.928 229.133,301.811 228.468,302.067 "/>
<path fill="#F29600" d="M228.798,297.597c-0.38-0.224,0.609,0.207,0.734,0.276C229.615,297.938,228.752,297.48,228.798,297.597"/>
<polygon fill="#F29600" points="227.571,293.138 227.571,293.197 226.6,292.074 "/>
<path fill="#F29600" d="M217.956,234.649c-0.282-0.375-1.154,0.37-0.535-0.202C217.956,234.447,218.398,234.458,217.956,234.649"/>
<path fill="#F29600" d="M218.156,235.144c-0.764,0.208-1.176,0.514-2.136,0.399C216.695,235.439,217.438,235.192,218.156,235.144"/>
<path fill="#F29600" d="M210.063,241.12c0.218,0.026-0.333,0-0.441-0.021c-0.048-0.098-0.62-0.327-0.24-0.245
	C209.429,240.88,209.756,241,210.063,241.12"/>
<path fill="#F29600" d="M209.251,242.216c-0.633-0.282-1.024-0.724-1.062-0.894L209.251,242.216z"/>
<path fill="#F29600" d="M207.618,242.748c-0.027,0.066-0.442-0.069-0.737-0.234C207.378,242.796,206.646,242.197,207.618,242.748"/>
<path fill="#F29600" d="M194.142,260.653c0.045-0.059,0.093-0.136,0.109-0.173h-0.287L194.142,260.653z M217.392,236.762
	c0.045,0.016,0.13,0.048,0.197,0.069C217.589,236.778,217.522,236.762,217.392,236.762 M178.158,244.02v-0.035
	c-0.088-0.048-0.202-0.069-0.306-0.109C177.852,243.964,177.929,243.985,178.158,244.02 M221.083,224.159
	c-0.835-0.92-2.115-1.788-2.192-3.041c-2.695-3.187-4.56-8.974-9.998-9.785c0.024,0.556-0.511,1.128-0.791,1.219l0.083-0.423
	l-0.67,0.78c-0.354-0.045,0.181-1.139,0.567-1.173c-1.764-0.865-3.661-0.615-5.481-1.312c-0.285,1.42-0.941-0.115-1.133,1.42
	c-0.077-0.276,0-0.37,0.083-0.66c-1.325,0.737-1.325,0.785-2.551-1.041c-5.351-1.149-10.315,1.777-14.391,4.669
	c-3.994,3.515-5.694,8.463-6.723,13.028c1.913,1.413,0.617,1.961,2.344,3.188l-0.697-0.194c0.899,0.881-0.306,0.756-1.269,1.498
	c0.812,0.141,0.221,0.349,1.493,0.463c1.045,0.402-1.902,0.208-1.373,0.758c-0.453-0.035,0.75,0.069,0.343,0.106
	c1.405,1.261-0.691-0.319-2.147,1.064c0.538,2.137,1.804,4.097,1.378,6.021c-0.072-0.088,0.915-0.327,1.014-0.152
	c-2.094,0.553,0.697,0.527-0.099,1.017c-0.388,0.056-0.562-0.08-0.801-0.136c-0.649,1.04,0.785,1.444,0.088,2.511
	c1.051,0.508-0.356,1.979,0.886,2.104c-0.854,0.181-0.474,0.567-0.782,0.91c2.538-0.495-0.104,1.897,1.687,1.835l-0.418,0.17
	c1.357,1.759,2.113,4.385,4.696,5.18c1.046,0.702,0.666,3.581,2.616,3.514c0.436-0.12,0.572-0.67,0.883-0.734
	c0.282,0.245-0.447,0.614-0.503,0.979c1.163-0.463,1.271,1.144,2.083,1.596c0.306-0.309,0.562-0.309,0.812-0.865
	c0.162,1.977,2.408,0.452,2.876,2.003c0.399-2.253,0.889-0.896,1.434-1.328c0.162,0.136,0,0.718-0.176,1.128
	c0.82-0.061,1.206-0.061,2.022,0.719c0.453-0.152,0.758-1.336,1.221-0.916c0.077,1.596,0.993,0.266,1.45,0.812
	c-0.021-1.312,0.599-2.392,1.014-1.809l-0.13,1.881c1.474-1.149,4.103,0.795,5.345-2.038l0.413,1.009
	c1.471-1.554,3.597-1.309,4.147-3.93c0.719,0.316,1.535,0.213,1.884-0.093c-0.048-1.139,0.191-1.187-0.423-2.647
	c0.104-0.187,0.734,0.441,1.078,0.649c0.681-0.208,2.392,0.391,1.548-1.298l0.636,0.588c-0.229-1.144-0.583-2.472,0.665-2.336
	c-0.54-0.638-0.391-1.304-1.431-1.767c0-0.298,1.357,0.801,0.702,0.051l0.947,0.984c1.123-0.984,1.091-2.522,1.091-4.009
	c1.695,0.359,0.292-1.248,1.383-1.634c-0.66-0.71,0.774-1.091-1.014-1.947l0.894,0.229c0.287-0.548,0.386-1.312,0.968-1.998
	c0.306-0.41-0.99-0.654-1.431-1.024l0.926,0.059c-0.463-0.38-1.695-0.636-2.567-0.854c0-0.066,0-0.114,0.016-0.165
	c0.16-0.12-0.13-0.173,0.415-0.391c0.441,0.3,1.399,0.62,2.599,0.91c0.452-0.431-1.764-1.041-0.359-1.248
	c0.327-0.41-0.077-0.724-1.298-0.785c0.383,0.099,0.731-0.234,1.271,0c-0.05-0.311-0.154-0.495-0.644-0.649
	c0,0.072-0.17,0.104-0.152,0.191c-0.774-0.12-0.857-0.354-1.777-0.306v-0.343c0.769-0.026,1.301,0.258,1.777,0.029l-1.833-0.465
	c0-0.396-0.016-0.849-0.101-1.24c-0.077-0.737-0.109-1.5-0.197-2.198c0.298,0.295,0.756,0.503,1.57,0.593
	c1.104,0.835,2.855,4.257,2.855,4.257C217.876,234.455,220.885,228.24,221.083,224.159 M215.66,236.903c0.021,0,0.021,0.032,0,0.12
	V236.903z M215.66,237.927c0.136,0.109,0.197,0.197,0,0.282V237.927z"/>
<polygon fill="#F29600" points="189.851,241.05 190.236,241.098 189.611,241.285 "/>
<path fill="#F29600" d="M190.066,231.074c-0.327-0.295,0.588,0.165,0.713,0.202C190.8,231.412,190.04,230.882,190.066,231.074"/>
<polygon fill="#F29600" points="190.835,224.3 190.803,224.366 189.936,223.308 "/>
<path fill="#F29600" d="M174.845,172.678c0.514,0.163,0.192-0.186-0.189-0.625C173.68,172.053,174.949,172.053,174.845,172.678
	 M134.281,145.719h0.072c0-0.122-0.072-0.218-0.128-0.322C134.171,145.445,134.188,145.527,134.281,145.719 M172.65,173.984
	c0.027,0.083,0.083,0.165,0.109,0.237C172.813,174.165,172.813,174.149,172.65,173.984 M186.538,145.501
	c-0.386,0.463-1.231,0.463-1.585,0.266l0.431-0.218l-1.107-0.021c-0.25-0.316,1.03-0.718,1.298-0.415
	c-0.681-2.256-2.392-3.693-3.307-5.797c-1.309,0.801-0.753-0.915-2.006,0.011c0.162-0.239,0.266-0.208,0.566-0.38
	c-1.617-0.639-1.7-0.545-1.303-2.975c-3.464-5.568-9.964-7.532-15.692-8.535c-6.108-0.538-11.643,1.995-16.258,4.861
	c0.338,2.615-1.243,2.027-0.889,4.355l-0.354-0.681c-0.059,1.368-0.873,0.402-2.229,0.245c0.498,0.718-0.189,0.37,0.78,1.53
	c0.415,1.117-1.706-1.362-1.727-0.479c-0.311-0.402,0.535,0.67,0.181,0.349c0.042,2.179-0.279-0.791-2.506-0.844
	c-1.407,2.206-2.043,4.768-3.961,6.085c0-0.146,0.974,0.492,0.843,0.726c-1.955-1.221,0.13,0.958-0.843,0.774
	c-0.383-0.367-0.383-0.556-0.556-0.774c-1.341,0.303-0.577,1.814-1.96,2.136c0.38,1.274-1.86,1.373-1.054,2.506
	c-0.769-0.562-0.806,0.101-1.28,0.101c2.262,1.7-1.602,1.429-0.234,2.884l-0.447-0.165c-0.431,2.588-1.929,5.39-0.609,8.282
	c0.229,1.521-2.36,3.44-0.79,5.146c0.434,0.287,1.019-0.077,1.306,0.178c0,0.458-0.873,0.109-1.149,0.3
	c1.194,0.703,0.087,2.07,0.322,3.171c0.468,0.032,0.687,0.261,1.253,0c-1.383,1.737,1.57,2.464,0.769,4.129
	c2.009-1.378,1.405,0.16,2.102,0.263c0.027,0.25-0.516,0.577-0.974,0.708c0.713,0.66,1.035,1.046,1.067,2.365
	c0.458,0.304,1.628-0.333,1.673,0.402c-1.112,1.293,0.593,1.102,0.562,1.841c0.974-0.984,2.347-1.224,2.272-0.434l-1.62,1.248
	c2.11,0.452,2.78,4.201,6.071,3.11l-0.437,1.107c2.469,0.075,4.06,2.043,6.644,0.588c0.354,0.812,1.093,1.389,1.671,1.426
	c0.899-0.915,1.144-0.734,1.788-2.304c0.271-0.088,0.349,0.878,0.38,1.293c0.809,0.453,1.711,2.267,2.421,0.229l0.048,1.035
	c0.731-1.096,1.618-2.421,2.458-1.331c0.151-0.937,0.801-1.314,0.354-2.458c0.181-0.229,0.426,1.695,0.535,0.602l-0.087,1.466
	c1.788,0.096,3.051-1.173,4.32-2.25c1.078,1.551,1.314-0.769,2.549-0.306c0.024-1.056,1.482-0.261,0.83-2.376l0.521,0.894
	c0.703-0.152,1.402-0.742,2.479-0.894c0.583-0.114-0.266-1.306-0.266-1.966l0.649,0.79c0-0.692-0.727-1.871-1.227-2.735
	c0.032-0.035,0.104-0.099,0.152-0.115c0.245,0.016,0.141-0.285,0.66,0c0.12,0.578,0.577,1.639,1.237,2.833
	c0.691,0-0.474-2.285,0.816-1.375c0.54-0.064,0.54-0.553-0.245-1.493c0.271,0.234,0.687,0.312,0.833,0.841
	c0.239-0.258,0.322-0.529,0.082-1.035c-0.082,0.021-0.229-0.056-0.229,0.048c-0.567-0.769-0.415-0.993-1.118-1.716
	c0.13-0.087,0.197-0.197,0.301-0.3c0.588,0.628,0.745,1.248,1.317,1.521l-1.003-1.875c0.306-0.391,0.649-0.78,1.003-1.181
	c0.617-0.453,1.237-0.916,1.788-1.423c0.061,0.399,0.25,0.731,0.561,1.2c0.12,1.586,4.882,0.958,4.882,0.958
	c4.31-3.677,1.078-0.359,4.483-3.557c0.149-1.408,2.562-8.567,3.477-9.655C188.763,153.341,190.119,150.939,186.538,145.501
	 M158.8,135.971c0.093-0.098,0.162-0.16,0.178-0.191c0,0.053,0,0.053,0.045,0.093C158.962,135.904,158.893,135.955,158.8,135.971
	 M170.094,173.833c0.093-0.059,0.16-0.151,0.252-0.239C170.373,173.806,170.317,173.883,170.094,173.833 M133.344,173.322
	c0.063-0.045,0.162-0.072,0.223-0.099c-0.061-0.061-0.191-0.13-0.269-0.239L133.344,173.322z M174.579,173.25
	c-0.556-0.529-1.309-0.931-1.902-1.421C173.3,172.721,173.842,172.798,174.579,173.25"/>
<path fill="#F29600" d="M161.415,172.234c-0.229-0.729-0.157-1.378-0.026-1.543L161.415,172.234z"/>
<path fill="#F29600" d="M159.178,169.802c-0.255-0.583-0.282-0.904-0.202-0.904L159.178,169.802z"/>
<path fill="#F29600" d="M159.523,171.414c-0.072,0.038-0.229-0.359-0.426-0.758C159.294,171.263,159.273,170.222,159.523,171.414"/>
<path fill="#F29600" d="M156.613,169.802c-0.072,0.062-0.173,0.692-0.261-0.114C156.44,170.222,156.56,168.735,156.613,169.802"/>
<path fill="#F29600" d="M155.445,170.978c-0.048-0.053-0.048-0.197-0.077,0c-0.016-0.343,0.029-0.883,0.077-0.926V170.978z"/>
<polygon fill="#F29600" points="145.367,153.014 145.622,153.368 144.981,153.014 "/>
<path fill="#F29600" d="M154.521,144.357c-0.032-0.545,0.343,0.551,0.453,0.623C154.849,145.184,154.684,144.139,154.521,144.357"/>
<polygon fill="#F29600" points="161.224,139.589 161.152,139.589 161.255,138.118 "/>
<path fill="#F29600" d="M130.726,259.403c0.229-0.442-0.79-0.899,0-0.572C130.955,259.326,131.08,259.698,130.726,259.403"/>
<path fill="#F29600" d="M130.258,259.749c-0.402-0.562-0.843-0.79-1.04-1.711C129.534,258.583,130.029,259.232,130.258,259.749"/>
<path fill="#F29600" d="M128.497,259.751v0.218C128.534,259.969,128.534,259.969,128.497,259.751 M96.331,245.959
	c0.077,0,0.165,0.021,0.213,0.021c-0.021-0.08-0.093-0.173-0.136-0.288L96.331,245.959z M105.752,223.467h0.056v-0.266
	C105.714,223.201,105.714,223.305,105.752,223.467 M148.796,240.691c-0.434,0.282-1.149-0.005-1.357-0.274l0.404-0.091l-0.873-0.356
	c-0.136-0.343,1.019-0.239,1.163,0.099c0.125-2.086-0.79-3.858-0.923-5.797c-1.29,0.176-0.239-0.99-1.655-0.649
	c0.25-0.179,0.306-0.136,0.62-0.136c-1.197-1.078-1.213-1.014-0.12-2.881c-1.094-5.662-5.752-9.354-10.081-12.183
	c-4.832-2.525-10.182-2.344-14.949-1.527c-0.606,2.214-1.625,1.206-2.158,3.222l-0.029-0.689c-0.5,1.096-0.859,0-1.929-0.572
	c0.17,0.758-0.271,0.295,0.127,1.5c0,1.109-0.939-1.636-1.266-0.929c-0.101-0.364,0.252,0.758,0,0.317
	c-0.625,1.793,0.104-0.681-1.759-1.456c-1.831,1.325-3.214,3.233-5.225,3.664c0.088-0.109,0.625,0.697,0.474,0.828
	c-1.259-1.591-0.24,0.873-0.969,0.391c-0.197-0.391-0.154-0.559-0.154-0.782c-1.248-0.154-1.117,1.264-2.331,1.078
	c-0.13,1.165-1.99,0.561-1.684,1.758c-0.458-0.708-0.681-0.178-1.064-0.324c1.304,2.118-1.807,0.67-1.16,2.335l-0.255-0.316
	c-1.181,2.022-3.318,3.858-3.11,6.702c-0.279,1.298-2.993,2.088-2.235,3.967c0.245,0.394,0.785,0.269,0.937,0.545
	c-0.093,0.359-0.691-0.151-0.992-0.104c0.769,0.966-0.572,1.75-0.702,2.735c0.348,0.17,0.468,0.437,1.059,0.383
	c-1.657,0.992,0.468,2.56-0.71,3.661c2.083-0.463,1.096,0.593,1.668,0.905c-0.062,0.197-0.633,0.29-1.014,0.266
	c0.38,0.812,0.524,1.173,0.13,2.25c0.311,0.474,1.413,0.285,1.221,0.873c-1.296,0.702,0.151,1.112-0.104,1.737
	c1.144-0.5,2.256-0.271,2.006,0.388l-1.75,0.516c1.581,1.075,0.955,4.294,4.012,4.534l-0.721,0.753
	c1.945,0.915,2.645,3.041,5.265,2.663c0,0.817,0.463,1.57,0.889,1.75c1.03-0.399,1.192-0.181,2.222-1.231
	c0.239,0.026-0.048,0.785-0.099,1.197c0.519,0.602,0.633,2.387,1.918,0.993l-0.333,0.856c0.981-0.638,2.059-1.386,2.442-0.234
	c0.412-0.676,1.099-0.764,1.062-1.865c0.285-0.162-0.192,1.466,0.285,0.623l-0.519,1.187c1.405,0.743,2.844,0.115,4.284-0.348
	c0.327,1.639,1.29-0.218,2.152,0.638c0.37-0.894,1.357,0.245,1.447-1.646l0.122,0.856c0.663,0.104,1.474-0.104,2.397,0.075
	c0.505,0.135,0.223-1.134,0.402-1.66l0.285,0.843c0.234-0.567,0.053-1.716-0.109-2.589c0.032,0,0.109-0.016,0.178-0.048
	c0.165,0.099,0.165-0.191,0.514,0.197c-0.088,0.516-0.04,1.482,0.074,2.725c0.607,0.184,0.415-2.022,1.096-0.852
	c0.519,0.12,0.708-0.391,0.306-1.466c0.064,0.41,0.489,0.519,0.489,1.075c0.234-0.114,0.389-0.295,0.389-0.801
	c-0.109,0.021-0.197-0.066-0.258,0c-0.173-0.779,0-0.955-0.282-1.745c0.064-0.053,0.197-0.093,0.282-0.162
	c0.295,0.641,0.213,1.269,0.596,1.633l-0.181-1.836c0.375-0.208,0.785-0.415,1.197-0.623c0.721-0.439,1.418-0.849,2.11-1.285
	c-0.191,0.42-0.295,0.944-0.13,1.809c-0.426,1.378,1.602,1.33,3.368,1.069c3.459-1.091,2.789-0.42,5.409-2.426
	c1.732-0.676,1.923-1.426,3.014-2.009C145.625,250.482,150.023,246.324,148.796,240.691 M126.44,258.831
	c0.072-0.056,0.16-0.104,0.295-0.127C126.674,258.873,126.573,258.961,126.44,258.831 M126.807,224.54h-0.045l0.045-0.136V224.54z
	 M128.936,224.028l-0.059,1.019c-0.042,0-0.077,0.042-0.12,0.093c-0.394-0.181-0.769-0.279-1.195-0.389
	c0.234-0.386,0.503-0.822,0.737-1.099c0.064,0.277,0.795-0.125,1.029-0.125C129.154,224.34,129.183,223.419,128.936,224.028
	 M130.795,226.005c-0.12-0.059-0.165-0.104-0.264-0.152c0.04-0.048,0.056-0.12,0.099-0.167
	C130.795,225.686,130.822,225.806,130.795,226.005 M133.567,227.761h-0.042l0.042-0.032V227.761z M134.097,227.945l-0.146,0.109
	c-0.083-0.069-0.16-0.109-0.237-0.178C133.999,227.591,134.19,227.455,134.097,227.945 M135.132,253.93
	c0.088-0.027,0.152-0.08,0.197-0.08C135.329,253.959,135.284,253.959,135.132,253.93 M135.22,229.254
	c0.151,0,0.266-0.077,0.447-0.197c-0.088,0.149-0.213,0.197-0.338,0.354C135.284,229.352,135.284,229.326,135.22,229.254
	 M135.757,229.805L135.757,229.805c-0.091-0.056-0.12-0.104-0.146-0.197C135.736,229.607,135.757,229.607,135.757,229.805
	 M136.358,230.605c-0.045,0-0.045-0.067-0.056-0.093c0.011,0,0.104,0.026,0.187,0.026
	C136.462,230.573,136.406,230.605,136.358,230.605 M139.796,249.91l-0.059-0.077c0.016-0.038,0.08-0.099,0.151-0.218
	C139.916,249.769,139.889,249.878,139.796,249.91"/>
<polygon fill="#F29600" points="112.414,233 112.534,233.37 112.132,232.87 "/>
<path fill="#F29600" d="M122.83,228.849c0.163-0.364,0.12,0.623,0.12,0.692C122.83,229.613,123.011,228.783,122.83,228.849"/>
<polygon fill="#F29600" points="129.915,227.343 129.883,227.317 130.434,226.21 "/>
<path fill="#F29600" d="M83.537,197.184c0-0.583-1.133-0.234-0.266-0.516C83.712,196.95,84.01,197.221,83.537,197.184"/>
<path fill="#F29600" d="M41.386,207.664c0.056-0.085,0.133-0.114,0.208-0.151c-0.12-0.053-0.208-0.109-0.306-0.197L41.386,207.664z
	 M35.708,179.654h0.029c-0.029-0.099-0.109-0.208-0.191-0.285C35.514,179.425,35.546,179.529,35.708,179.654 M81.695,199.158
	c0.067,0.077,0.077,0.154,0.133,0.181C81.855,199.339,81.829,199.286,81.695,199.158 M79.288,200.499
	c0.136,0.556,0.737,1.391,1.522,2.365c0.708-0.229-0.727-2.091,0.588-1.602c0.484-0.208,0.458-0.748-0.37-1.395
	c0.255,0.12,0.604,0.08,0.854,0.545c0.165-0.351,0.239-0.612-0.053-1.075c-0.056,0.088-0.234,0.099-0.285,0.17
	c-0.516-0.58-0.458-0.846-1.221-1.325c0.104-0.125,0.16-0.245,0.248-0.388c0.641,0.388,0.875,0.992,1.404,1.085l-1.165-1.559
	c0.277-0.468,0.505-0.984,0.734-1.477c0.431-0.91,0.862-1.753,1.274-2.57c0.045,0.441,0.311,0.963,0.889,1.585
	c0.338,1.581-2.163,2.267-1.197,5.552c0.205-4.147,5.872-3.461,9.697-12.533c-0.162-1.445-0.816-3.246-0.223-4.539
	c-0.62-5.132,0.545-12.02-4.146-16.466c-0.269,0.561-1.019,0.638-1.352,0.561l0.304-0.327l-1.008,0.187
	c-0.319-0.274,0.737-0.883,1.08-0.623c-1.243-2.07-3.238-3.083-4.605-4.925c-1.006,0.982-0.942-0.764-1.889,0.354
	c0.059-0.266,0.224-0.266,0.442-0.437c-1.767-0.298-1.767-0.245-2.067-2.56c-4.722-4.448-11.451-4.959-17.381-4.61
	c-6.205,0.758-11.246,4.451-15.306,8.413c0.737,2.288-0.859,2.203-0.25,4.289l-0.407-0.556c0.146,1.309-0.769,0.639-2.125,0.846
	c0.583,0.583-0.066,0.495,0.976,1.245c0.609,0.96-1.814-0.729-1.71,0.072c-0.327-0.239,0.63,0.458,0.239,0.312
	c0.354,2.006-0.372-0.697-2.541-0.077c-0.926,2.49-1.149,5.225-2.685,7.09c0-0.197,0.931,0.163,0.899,0.413
	c-2.012-0.63,0.261,0.915-0.681,1.019c-0.383-0.208-0.46-0.437-0.562-0.609c-1.179,0.713-0.279,2.011-1.471,2.703
	c0.527,1.17-1.386,1.889-0.492,2.767c-0.769-0.29-0.641,0.316-1.133,0.452c2.354,1.16-1.133,1.892,0.364,3.009l-0.412-0.088
	c0.178,2.74-0.604,5.927,1.29,8.532c0.572,1.466-1.242,3.961,0.628,5.297c0.413,0.229,0.844-0.285,1.144-0.088
	c0.104,0.447-0.731,0.317-0.937,0.588c1.274,0.392,0.583,2.017,1.12,3.025c0.437-0.066,0.71,0.12,1.173-0.245
	c-0.737,1.921,2.075,2.123,1.753,3.911c1.511-1.737,1.325-0.088,1.995-0.141c0.104,0.229-0.295,0.609-0.638,0.838
	c0.84,0.5,1.2,0.801,1.612,2.048c0.585,0.197,1.423-0.604,1.652,0.083c-0.649,1.416,0.873,0.931,1.062,1.689
	c0.676-1.133,1.871-1.575,2.006-0.835l-1.134,1.471c2.126,0.062,3.76,3.358,6.718,1.804l-0.168,1.059
	c2.44-0.295,4.544,1.067,6.787-0.7c0.535,0.681,1.418,0.998,1.99,0.929c0.785-1.014,1.003-0.929,1.356-2.464
	c0.271-0.114,0.506,0.713,0.655,1.083c0.963,0.186,2.184,1.631,2.533-0.354l0.224,0.894c0.561-1.133,1.2-2.522,2.277-1.759
	c-0.032-0.873,0.562-1.402-0.088-2.261c0.186-0.269,0.705,1.368,0.649,0.364l0.208,1.357c1.862-0.354,2.881-1.886,3.993-3.238
	c1.33,1.128,1.2-1.104,2.485-0.963c-0.093-1.014,1.445-0.724,0.5-2.475l0.596,0.697c0.729-0.37,1.349-1.166,2.314-1.623
	c0.583-0.261-0.431-1.17-0.489-1.814l0.718,0.588c-0.114-0.676-0.926-1.559-1.532-2.216c0.045-0.05,0.122-0.144,0.149-0.191
	C78.857,200.637,78.742,200.395,79.288,200.499 M79.495,199.573c0.027,0.135,0,0.295-0.208,0.295
	C79.365,199.781,79.392,199.682,79.495,199.573"/>
<path fill="#F29600" d="M83.366,197.87c-0.724-0.218-1.253-0.114-1.971-0.822C82.009,197.32,82.821,197.527,83.366,197.87"/>
<path fill="#F29600" d="M72.094,200.35c0.151,0.213-0.277-0.136-0.354-0.229c0.059-0.13-0.311-0.609,0-0.41
	C71.713,199.866,71.937,200.121,72.094,200.35"/>
<path fill="#F29600" d="M70.364,201.201c-0.354-0.566-0.354-1.221-0.223-1.42L70.364,201.201z"/>
<path fill="#F29600" d="M67.584,199.711c-0.38-0.399-0.458-0.681-0.295-0.753C67.448,199.286,67.48,199.435,67.584,199.711"/>
<path fill="#F29600" d="M68.215,201.084c-0.13,0.093-0.354-0.234-0.604-0.524C67.903,201.058,67.752,200.121,68.215,201.084"/>
<path fill="#F29600" d="M64.562,200.611c-0.088,0.077-0.088,0.649-0.365-0.048C64.442,201.058,64.37,199.68,64.562,200.611"/>
<path fill="#F29600" d="M63.378,201.994c-0.016-0.066-0.099-0.167-0.099,0c-0.104-0.282-0.104-0.795-0.083-0.843L63.378,201.994z"/>
<polygon fill="#F29600" points="46.872,183.865 47.111,184.142 46.529,183.964 "/>
<path fill="#F29600" d="M54.75,171.856c-0.053-0.452,0.463,0.431,0.545,0.474C55.213,172.516,54.885,171.611,54.75,171.856"/>
<polygon fill="#F29600" points="61.252,165.737 61.159,165.737 60.986,164.396 "/>
<path fill="#DE0515" d="M179.796,372.107c2.522-7.838-2.272,3.869,1.445-5.198C181.241,368.09,180.962,369.718,179.796,372.107"/>
<path fill="#DE0515" d="M572.244,135.87l9.822,0.312l-9.242-0.373l14.638,0.316c0,0-2.064,5.351-2.607,4.398v0.027v0.021
	l-0.048,0.093c-0.09,0.343-0.048,0.503,0.208,0.343l0.191-0.271"/>
<path fill="#DE0515" d="M183.295,373.879c-1.056,1.479-3.249,6.758-2.408,2.256C181.513,375.784,183.066,373.187,183.295,373.879"/>
<path fill="#DE0515" d="M232.97,454.099c0.189,0.176,0.37,2.197,0.401,2.666c-0.516-1.799-1.482-3.363-1.585-4.891
	C232.347,453.71,232.512,453.328,232.97,454.099"/>
<path fill="#DE0515" d="M243.343,491.937c-0.62-0.447-3.249-8.338-4.68-13.148L243.343,491.937z"/>
<path fill="#DE0515" d="M277.903,489.649c2.953-1.069,2.262-0.474-1.477,1.367C276.046,490.958,277.238,490.212,277.903,489.649"/>
<path fill="#DE0515" d="M279.691,487.478c2.658-1.373,4.129-1.762,5.563-2.192C284.988,484.988,279.162,488.654,279.691,487.478"/>
<path fill="#DE0515" d="M343.088,470.264c1.606,1.021,5.225,2.953,6.363,4.342C348.037,473.239,341.513,470.073,343.088,470.264"/>
<path fill="#DE0515" d="M373.833,489.83c0.926,0.654,1.309,1.006,2.49,1.634c1.708,1.404-0.415,0.474-1.921-0.506L373.833,489.83z"
	/>
<polygon fill="#DE0515" points="504.124,134.614 508.061,134.406 507.439,134.915 "/>
<path fill="#DE0515" d="M309.592,53.181c-2.112,3.357-2.006,1.923-2.442,2.408C309.247,52.718,306.831,57.023,309.592,53.181"/>
<polygon fill="#DE0515" points="311.114,113.452 311.322,110.925 311.705,115.381 "/>
<polygon fill="#231815" points="398.836,30.088 398.836,30.452 399.651,29.995 "/>
<path fill="#231815" d="M402.327,30.242l0.165-0.516l-2.687,0.937C399.805,32.16,402.327,29.25,402.327,30.242"/>
<path fill="#231815" d="M402.683,30.726c0.267,0.846,1.086,0.104,1.373-0.141C403.45,31.125,403.109,29.66,402.683,30.726"/>
<path fill="#231815" d="M458.852,59.742l-0.229-0.042L458.852,59.742z"/>
<path fill="#231815" d="M564.124,122.094c-0.915-0.817-4.033-3.52-5.257-4.148c-4.502-3.786-9.397-6.244-14.059-9.743
	c-2.512-1.82-4.607-2.472-7.236-4.092l0.244-0.556c-5.613-0.838-18.06-11.674-23.992-12.417l0.729-0.5
	c-1.357,0.594-2.47-1.995-3.363-0.274l-0.181-0.157l-0.352-0.806c-0.352,0.064-0.681,0.064-1,0.032l-3.768-2.251
	c-1.277-1.367-2.575-2.942-5.023-3.349l0.521-0.285c-1.213-0.317-2.596-0.769-3.107-1.689c0.154,0.029,0.182-0.152,0.512-0.075
	c-2.14-3.82-6.864-4.137-10.164-6.358l0.873-0.607c-2.229-0.005-4.672-2.844-7.066-3.765l0.373-0.311l-1.453-0.104l0.447-0.864
	c-2.72-1.804-5.773-2.791-8.52-4.425l0.559-0.67c-3.304-0.29-5.406-3.384-8.369-4.539l0.329-0.109
	c-6.641-4.648-13.61-7.441-20.688-11.158l0.468-0.234c-0.468,0.037-1.139,0.287-1.432-0.019c0-0.221,0.293-0.255,0.463-0.255
	c-0.702-2.097-4.65-1.935-4.964-3.417c-0.5-0.12-0.963,0.25-0.963,0.801c-5.443-3.089-11.281-6.428-17.192-8.902
	c-0.123-0.343,0-0.697,0.346-1.064c-1.075-0.188-2.219-0.354-3.459-0.505l-35.31-20.946l0.654,1.043h-0.027
	c-0.329-0.481-0.468-0.721-0.409-0.425l0.154,0.261l-2.208-1.312c-0.325-0.333-0.517-0.508-0.623-0.367
	c0.106,0.197,0.341,0.591,0.564,0.916l3.107,5.254l0.979,2.621c1.384,0.077,0.506,1.197,0.649,1.825l-0.351,0.5
	c-0.756,0.934,2.905,0.378,0.926,0.987c0.687,0.904,2.703,3.339,5.118,6.281l3.353,5.608c-0.128,0.053-0.234,0.189-0.341,0.282
	c0,0.519,0.373,0.41,0.639,0.25l0.356,0.561c-0.266,0.269-0.782,0.269-0.25,0.939l0.676-0.234c-0.346,0.468-0.08,0.646,0.415,0.681
	l30.154,50.526c0.053,0.178,0.069,0.386,0.069,0.532c0.165,0.109,0.335,0.269,0.516,0.373l16.208,27.14h0.484l0.346,1.187
	l1.532,0.338l5.311-0.114l-0.128,0.104c1.043-0.795,4.332-0.234,5.486-1.237l7.082,0.186c-0.053,0.173-0.127,0.322-0.292,0.322
	c3.847,0.213,7.784,0.146,11.68,0l55.694,1.333c6.04,1.07,12.201,2.365,15.597,2.65c4.646-2.043,9.62-0.562,14.526-1.319
	l0.031,0.098l0.501-0.208c0.213-0.053,0.457-0.083,0.648-0.125l-0.436,0.333L564.124,122.094z M418.625,35.43l-0.054-0.016h0.054
	V35.43z M562.985,121.45v0.519c-0.159-0.139-0.267-0.279-0.362-0.383C562.75,121.511,562.857,121.471,562.985,121.45"/>
<path fill="#231815" d="M445.577,48.366l0.042,0.032C445.768,48.366,445.72,48.366,445.577,48.366"/>
<path fill="#231815" d="M386.183,22.846l-0.048-0.447C386.029,22.498,386.183,22.7,386.183,22.846"/>
<polygon fill="#231815" points="578.789,202.319 578.554,202.505 579.289,202.864 "/>
<path fill="#231815" d="M580.597,204.942l0.479-0.12l-2.155-1.538C577.74,204.059,581.369,204.426,580.597,204.942"/>
<path fill="#231815" d="M580.406,205.421c-0.457,0.615,0.548,0.838,0.894,0.971C580.507,206.206,581.427,205.245,580.406,205.421"/>
<path fill="#231815" d="M599.402,347.359c0.059-2.708-0.585-4.518-0.767-7.221l0.586-0.09c-2.464-4.513-1.021-18.868-3.661-23.52
	l0.777,0.261c-1.192-0.659,0.186-2.751-1.623-2.532v-0.219l0.431-0.628c-0.239-0.223-0.431-0.511-0.596-0.75l-0.335-3.825
	c0.335-1.629,0.835-3.342-0.203-5.343l0.538,0.234c-0.447-1.017-0.852-2.229-0.404-3.033c0.069,0.096,0.191,0.021,0.34,0.287
	c1.74-3.384-0.585-6.986-0.713-10.493l0.889,0.325c-1.154-1.655-0.324-4.773-0.963-6.949l0.468,0.09l-0.67-1.106l0.841-0.032
	c-0.122-2.905-1.049-5.624-1.256-8.389l0.798,0.104c-1.585-2.589-0.33-5.625-1.106-8.336l0.309,0.162
	c-0.096-7.071-1.819-13.534-2.788-20.504l0.383,0.242c-0.282-0.301-0.809-0.66-0.756-1.054c0.192-0.093,0.373,0.093,0.458,0.208
	c1.182-1.535-1.043-4.299-0.139-5.278c-0.127-0.399-0.713-0.566-1.106-0.301c-0.671-5.48-1.208-11.317-2.564-16.825
	c0.138-0.301,0.489-0.365,0.968-0.301c-0.446-0.894-0.937-1.809-1.511-2.746l-3.277-36l-0.458,1.041v-0.067
	c0.181-0.423,0.276-0.63,0.106-0.458l-0.106,0.234l-0.224-2.253c0.117-0.373,0.064-0.602-0.043-0.655
	c-0.159,0.245-0.309,0.583-0.425,0.931l-2.288,4.861l-1.447,1.908c0.739,1.104-0.617,1.019-0.99,1.41h-0.569
	c-1.171-0.146,1.219,2.267-0.293,1.165c-0.255,0.926-1.026,3.597-1.979,6.837l-2.383,5.119c-0.128-0.011-0.304-0.066-0.458-0.128
	c-0.356,0.279-0.043,0.481,0.154,0.67l-0.197,0.508c-0.361-0.04-0.628-0.463-0.83,0.266l0.517,0.343
	c-0.537-0.021-0.517,0.301-0.314,0.67l-21.858,46.767c-0.117,0.12-0.224,0.229-0.372,0.306v0.572l-11.733,25.083l0.276,0.356
	l-0.739,0.878l0.585,1.287l2.948,3.741l-0.122-0.011c1.111,0.335,2.512,3.038,3.853,3.336l3.74,5.284
	c-0.159,0.053-0.287,0.053-0.383-0.059c1.926,2.895,4.055,5.672,6.343,8.386l29.233,41.121c2.469,4.89,4.8,10.02,6.406,12.59
	c4.098,2.319,5.704,6.757,8.902,9.865l-0.091,0.106l0.469,0.255c0.165,0.106,0.34,0.287,0.479,0.394l-0.511-0.117l1.458,1.9
	c0.128-1.081,0.506-4.635,0.309-5.896C600.115,357.267,599.338,352.489,599.402,347.359 M586.057,220.032v-0.053
	c0,0,0,0.027,0.031,0.048L586.057,220.032z M598.859,367.329c0.043-0.144,0.096-0.303,0.133-0.42
	c0.069,0.059,0.197,0.159,0.262,0.191L598.859,367.329z M590.377,245.249L590.377,245.249
	C590.452,245.4,590.393,245.331,590.377,245.249"/>
<path fill="#231815" d="M577.49,189.596l0.282-0.255C577.596,189.309,577.564,189.503,577.49,189.596"/>
<path fill="#231815" d="M509.051,455.466l0.074-0.133L509.051,455.466z"/>
<path fill="#231815" d="M555.045,413.728l-4.182,0.793l-1.964-0.026c-0.356,0.984-0.926,0.026-1.373,0l-0.271-0.378
	c-0.446-0.814-0.809,1.905-0.861,0.352c-0.691,0.324-2.768,1.016-5.226,1.952l-4.427,0.873c-0.032-0.091-0.064-0.202-0.106-0.314
	c-0.352-0.127-0.309,0.171-0.352,0.405l-0.437,0.09c-0.111-0.25,0-0.622-0.559-0.415l0.032,0.506
	c-0.234-0.362-0.41-0.197-0.58,0.106l-39.918,7.87c-0.117-0.011-0.277-0.064-0.384-0.097c-0.085,0.086-0.244,0.182-0.351,0.229
	l-21.476,4.229l-0.106,0.41l-0.852-0.091l-0.532,0.99l-0.989,3.725l-0.086-0.144c0.325,0.958-0.713,3.145-0.266,4.166l-1.575,4.949
	c-0.139-0.075-0.17-0.182-0.17-0.314c-0.904,2.592-1.649,5.332-2.288,8.046l-12.281,38.764c-1.926,3.927-4.097,7.917-4.97,10.211
	c0.469,3.788-1.564,6.896-2.054,10.487l-0.054-0.026v0.441c0,0.176,0,0.346-0.048,0.517l-0.111-0.405l-0.543,1.873
	c0.734-0.489,3.225-1.926,3.863-2.569c3.448-2.188,6.104-4.96,9.354-7.312c1.74-1.309,2.597-2.538,4.257-3.996l0.298,0.346
	c1.676-3.708,11.499-9.577,13.207-13.59l0.191,0.639c-0.154-1.048,1.819-1.182,0.852-2.208l0.096-0.149l0.628-0.026
	c0.069-0.202,0.111-0.506,0.224-0.665l2.267-2.07c1.159-0.521,2.469-1.037,3.262-2.649l0.101,0.441
	c0.426-0.809,1.032-1.586,1.725-1.702c-0.027,0.116,0.063,0.159,0,0.356c2.974-0.474,4.15-3.709,6.3-5.497l0.213,0.83
	c0.468-1.559,2.857-2.495,3.979-3.959l0.128,0.33l0.373-0.963l0.431,0.526c1.799-1.441,3.06-3.299,4.768-4.837l0.282,0.612
	c0.915-2.256,3.384-2.862,4.746-4.72l0.032,0.304c4.448-3.417,7.747-7.572,11.69-11.515l0.021,0.356
	c0.102-0.356,0.08-0.841,0.304-0.958c0.149,0.026,0.149,0.266,0.133,0.346c1.517,0.053,2.219-2.74,3.262-2.602
	c0.182-0.293,0.032-0.687-0.309-0.847c3.14-3.038,6.582-6.156,9.419-9.7c0.266-0.032,0.457,0.176,0.659,0.484
	c0.341-0.697,0.682-1.479,1.021-2.234l21.242-19.252l-0.862,0.234l0.032-0.059c0.361-0.059,0.526-0.149,0.361-0.176l-0.224,0.091
	l1.352-1.245c0.256-0.117,0.415-0.256,0.356-0.362C555.546,413.547,555.264,413.627,555.045,413.728 M446.342,512.865l-0.298-0.139
	c0.059-0.106,0.187-0.106,0.298-0.17V512.865z M533.357,434.412h-0.021H533.357z"/>
<path fill="#231815" d="M519.411,449.204h-0.042C519.321,449.289,519.369,449.256,519.411,449.204"/>
<path fill="#231815" d="M548.543,414.356l0.352,0.091C548.81,414.282,548.661,414.356,548.543,414.356"/>
<polygon fill="#231815" points="379.899,518.281 379.798,518.1 379.495,518.569 "/>
<path fill="#231815" d="M377.935,519.138l0.021,0.335l1.262-1.267C378.792,517.376,378.191,519.723,377.935,519.138"/>
<path fill="#231815" d="M377.6,518.93c-0.383-0.335-0.639,0.267-0.766,0.484C377.063,518.904,377.6,519.691,377.6,518.93"/>
<path fill="#231815" d="M338.938,517.807l0.128-0.037L338.938,517.807z"/>
<path fill="#231815" d="M393.723,522.921c-0.149-0.054-0.362-0.224-0.554-0.314l-3.107-2.123l-1.149-1.208
	c-0.846,0.325-0.639-0.553-0.883-0.872l0.085-0.336c0.181-0.761-1.708,0.527-0.777-0.367c-0.606-0.271-2.341-1.128-4.459-2.149
	l-3.245-2.203c0-0.048,0.053-0.154,0.096-0.276c-0.117-0.276-0.33-0.101-0.469,0l-0.309-0.207c0.074-0.171,0.384-0.347-0.074-0.517
	l-0.356,0.266c0.133-0.351-0.074-0.351-0.378-0.25l-29.622-20.193c-0.091-0.127-0.154-0.223-0.191-0.313
	c-0.112,0-0.239-0.032-0.314-0.08l-15.941-10.833l-0.324,0.138l-0.501-0.553l-0.915,0.181l-2.921,1.463l0.032-0.037
	c-0.384,0.697-2.353,1.293-2.73,2.123l-4.007,1.847c-0.021-0.133,0-0.304,0.192-0.304c-2.203,0.867-4.348,1.975-6.486,3.146
	l-31.485,14.255c-3.613,1.026-7.377,1.995-9.338,2.703c-2.043,2.399-5.199,2.926-7.748,4.645l-0.016-0.048l-0.252,0.293
	c-0.104,0.059-0.234,0.139-0.343,0.234l0.165-0.304l-1.466,0.697c0.718,0.207,3.15,0.941,3.972,0.941
	c3.459,0.937,6.806,0.984,10.363,1.65c1.772,0.356,3.134,0.175,5.007,0.356v0.394c3.357-1.032,13.044,1.697,16.548,0.521
	l-0.301,0.474c0.607-0.767,1.963,0.542,1.916-0.889l0.537,0.521c2.459-1.56,3.996,1.362,6.901,0.489l-0.255,0.282
	c0.787-0.154,1.682-0.277,2.187,0.138c-0.09,0-0.079,0.123-0.271,0.182c2.192,1.585,4.848,0.441,7.285,0.824l-0.346,0.527
	c1.276-0.527,3.362,0.372,4.933,0.266l-0.154,0.25l0.84-0.282l-0.021,0.56c1.979,0.276,3.9,0.026,5.89,0.181l-0.191,0.521
	c1.953-0.702,3.879,0.489,5.875,0.298l-0.187,0.191c4.874,0.771,9.45,0.495,14.324,0.682l-0.202,0.191
	c0.255-0.102,0.554-0.421,0.824-0.362c0.043,0.171-0.122,0.261-0.191,0.335c0.926,0.979,3.081-0.181,3.629,0.521
	c0.293-0.063,0.442-0.351,0.325-0.686c3.82,0.191,7.896,0.596,11.813,0.383c0.213,0.122,0.213,0.335,0.138,0.691
	c0.873-0.261,1.863-0.622,2.863-0.926c-0.352,0.043-0.682,0.096-1,0.267c-0.091-0.251-0.293-0.352-0.532-0.432l1.532,0.165
	l3.555,0.304c-0.054,0.053-0.054,0.17,0.063,0.266c0.16,0.191,0.341,0,0.5-0.239l19.433,1.767c0.266,0.176,0.426,0.271,0.304,0.144
	l-0.149-0.144l1.58,0.176C393.532,523.017,393.697,523.017,393.723,522.921 M264.686,511.492l-0.085-0.25
	c0.085,0,0.218,0.037,0.276,0.085C264.818,511.379,264.779,511.422,264.686,511.492 M363.84,520.5
	c-0.649-0.139-1.288-0.277-2.012-0.415l2.214,0.138C363.958,520.314,363.873,520.388,363.84,520.5"/>
<path fill="#231815" d="M349.218,520.665l-0.032-0.016C349.133,520.665,349.133,520.665,349.218,520.665"/>
<path fill="#231815" d="M388.764,518.93l0.148,0.267C388.956,519.069,388.843,519.015,388.764,518.93"/>
<path fill="#231815" d="M224.033,470.164l-0.545-2.065l-0.029-1.063c-0.484,0-0.016-0.442,0-0.687l0.192-0.197
	c0.431-0.341-1.019-0.106-0.208-0.404c-0.163-0.324-0.631-1.256-1.171-2.421l-0.54-2.166c0.051-0.048,0.077-0.059,0.165-0.096
	c0.027-0.218-0.088-0.187-0.197-0.138l-0.072-0.219c0.104-0.101,0.295-0.101,0.181-0.341l-0.266,0.08
	c0.189-0.187,0.115-0.25-0.087-0.25l-5.053-19.656c0.029-0.106,0.029-0.181,0.062-0.276c-0.062-0.026-0.12-0.085-0.146-0.117
	l-2.749-10.594h-0.178l0.032-0.421l-0.545-0.138l-2.049,0.096l0.088-0.096c-0.484,0.372-1.668,0.138-2.219,0.532
	c0-0.038,0.035,0.026,0.109,0.138h-1.541c-0.208-0.063-0.502-0.196-0.867,0.054h-0.048l0.048-0.165l-0.327,0.165h-0.104
	c0.034-0.191,0.175-0.352,0.3-0.341c-1.493-0.048-2.729,0.091-3.93,0.437l-9.916,0.111l-0.386-0.176l0.224,0.176l-9.993,0.229
	c-1.49-0.314-2.926-0.602-3.863-0.687c-1.996,0.851-3.68,0.346-5.593,0.659v-0.096l-0.282,0.16
	c-0.093,0.021-0.197,0.031-0.266,0.031l0.266-0.191l-0.987,0.096c0.213,0.304,1.019,1.325,1.413,1.549
	c1.234,1.474,2.777,2.421,4.063,3.805c0.748,0.654,1.46,0.889,2.24,1.554l-0.125,0.229c1.971,0.261,2.325,3.277,4.478,3.464
	l-0.38,0.256c0.67-0.293,0.748,0.798,1.309,0l0.032,0.426c1.798-0.25,1.258,1.804,2.996,2.112l-0.224,0.138
	c0.431,0.139,0.878,0.271,0.926,0.655c-0.048,0-0.069,0.059-0.2,0.059c0.349,1.479,2.081,1.569,3.078,2.399l-0.404,0.245
	c0.841,0,1.413,1.085,2.163,1.441l-0.146,0.133l0.5,0.059l-0.271,0.325c0.816,0.691,1.852,1.059,2.652,1.729l-0.288,0.244
	c1.206,0.043,1.618,1.31,2.605,1.708l-0.146,0.112c1.929,1.734,4.233,2.762,6.417,4.246l-0.178,0.069c0.146,0,0.444-0.139,0.521,0
	c-0.077,0.068-0.151,0.09-0.239,0.09c0,0.819,1.532,0.74,1.445,1.314c0.189,0.032,0.401-0.106,0.458-0.341
	c1.684,1.192,3.48,2.459,5.377,3.427c0.037,0.091-0.064,0.25-0.261,0.442c0.458,0.079,1.035,0.122,1.569,0.17l1.655,1.277
	c0,0.021-0.027,0.101-0.027,0.122c0,0.063,0.114,0.063,0.213,0l8.538,6.646l-0.141-0.452c0.12,0.181,0.141,0.293,0.141,0.181
	l-0.021-0.09l0.67,0.526c0.053,0.085,0.163,0.139,0.163,0.085C224.113,470.424,224.113,470.291,224.033,470.164 M171.844,430.319
	l0.08-0.164c0.04,0.058,0.04,0.116,0.104,0.159C171.964,430.319,171.881,430.319,171.844,430.319 M200.716,452.875v-0.059
	l0.234,0.154C200.871,452.939,200.814,452.902,200.716,452.875 M211.223,461.038c-0.13-0.16-0.306-0.367-0.468-0.506l0.599,0.484
	C211.297,461.016,211.271,461.016,211.223,461.038 M212.55,462.139v-0.208l0.327,0.208H212.55z M204.334,457.174v-0.021
	C204.313,457.153,204.313,457.174,204.334,457.174"/>
<path fill="#231815" d="M223.581,466.875l-0.099,0.16C223.581,467.002,223.538,466.907,223.581,466.875"/>
<path fill="#E50012" d="M233.797,460.377c-0.255-1.202-0.609-2.463-1.434-3.857C233.055,458.404,233.459,459.638,233.797,460.377
	 M233.797,460.377c0.474,2.294,0.474,4.55,1.711,7.29c0.202,1.538-1.331-1.921-0.431,1.602c1.407,2.853,1.008-2.128-0.282-7.769
	v-0.298C234.561,461.5,234.308,461.431,233.797,460.377 M234.794,461.203c0.048-0.102,0.104-0.276,0.179-0.458
	C234.843,460.607,234.794,460.708,234.794,461.203 M328.578,463.889c0.469-0.218,1.352-0.648,2.74-1.463
	C330.153,463.033,329.243,463.485,328.578,463.889 M399.917,508.219c-0.271-0.085-0.505-0.171-0.649-0.197
	C399.566,508.134,399.757,508.219,399.917,508.219 M377.675,493.416c-0.282-0.105-0.554-0.266-0.916-0.415L377.675,493.416z
	 M322.113,37.05c0.213-0.338,0.426-0.562,0.649-0.904C322.639,35.965,322.406,36.401,322.113,37.05 M388.413,59.489
	c-0.139-0.104-0.213-0.279-0.346-0.487c0.042,0.077,0.069,0.133,0.069,0.208C388.221,59.303,388.295,59.444,388.413,59.489
	 M405.116,86.052c-0.091-0.138-0.091-0.234-0.134-0.42C404.982,85.73,405.025,85.876,405.116,86.052 M589.504,383.606l-0.17-0.255
	l-1.075-1.533c-1.256-1.937-1.979-3.41-1.352-3.479c-1.426-1.543-2.809-3.086-1.457-0.767c-2.672-4.618-11.281-16.346-17.24-23.838
	c2.469,3.82,1.952,3.692,1.697,4.396c-1.74-0.437-1.123-1.831-3.933-4.556c0.298-0.298-1.942-4.107,1.038-0.511
	c-6.428-11.189-17.916-24.796-27.186-37.886c-2.054-2.511-1.617-1.596-2.783-2.682c-5.135-8.844-13.414-18.097-19.512-27.18
	c0.713,1.469-0.383,1.128-2.182-0.617c-0.032-1.017-0.054-2.021-0.122-3.049c0.383-0.591,1.08-2.027,2.261-5.14
	c0.942-2.897,3.379-7.961,4.486-10.063l0.037,0.239c1.187-3.504,3.544-8.828,5.832-12.499l-0.234,0.644
	c1.702-3.185,4.065-6.601,5.64-9.945c-0.042-1.913,4.523-9.807,4.8-12.097c0.267-0.38,0.037,0.269,0.639-0.532l-0.479-0.628
	l3.65-6.401c-0.469,1.535-0.336,2.033-1.086,3.978c3.948-6.816,0.58-2.703,2.08-6.593c2.017-5.204,2.496-4.55,3.954-6.816
	c-0.671,2.2-1.938,3.541-2.448,4.826c-0.883,3.083,1.698-2.887,2.097-2.799c0.548-1.027,0-1.902,1.979-5.412
	c1.649-3.118,5.065-10.586,5.391-9.317c0.926-2.884,2.602-5.989,3.304-8.163c-1.404,2.464-3.916,7.061-4.655,7.388
	c1.026-2.371,3.139-7.096,3.853-7.644l-0.782,1.921c0.782-1.921,4.353-8.559,1.979-5.419l3.293-4.31
	c0.347-2.104,2.837-6.904,4.667-10.958c0.804,0.218,0,3.81,3.927-3.504l2.416-6.75c1.575-3.405,2.202-4.174,2.341-3.461
	c6.162-11.24,4.14-9.517,9.302-18.208c-0.532,2.185,0.351-0.827,0.946-1.559l0.474-0.729l0.325-0.468l0.144-0.295l0.032-0.075v-0.04
	l-3.262-1.46l0.085-0.208h-0.501l-4.16-1.831c-1.607-2.474-1.139-1.197-0.857-0.386l-0.324-0.186
	c-0.032-0.011-0.032-0.099-0.069-0.099l-0.08,0.088l-0.734-0.364c-8.812-2.246-29.351-0.857-43.669-2.022
	c0.899,1.166-6.412,0.261-9.339,0.671c0.899-1.227-8.056,0.114-11.93-0.671l2.123,1.232c-8.731-0.827-14.239,1.679-19.677,0.163
	c-4.9-0.434,1.708-0.875,3.74-1.078c-6.736-1.362-18.08,0.904-23.497-0.615c-0.564,0.495,1.415,1.285-4.459,1.682
	c-4.768-0.599-14.17-1.362-13.287-1.541c-3.905,0.178-4.964,0.562-9.231,0.069c0.383-0.319,2.229-0.319,3.629-0.434
	c-2.938-0.192-3.928,0.62-6.492,0.702l-1.362-0.338l-8.247,0.474l-5.896-11.06c-1.831-3.03-3.608-6.129-4.98-8.742
	c-3.272-3.225-6.231-11.195-7.796-10.945c0.213,0.099-0.122-0.833-0.276-1.335c-1.921-2.299-3.933-3.807-5.933-6.979l1.441,0.535
	c1.373,0.096-4.453-7.968-5.235-10.091c0.516,2.189-2.347-4.028-3.081-3.908l-2.544-3.563c-3.873-5.906-0.841-0.474-5.459-7.835
	c-2.629-4.174,0.074-2.027,0.846-0.513c-1.729-3.797-4.113-7.202-6.465-10.743c0.777,1.352,0.979,1.841,0.059,0.67
	c0.026-0.128-0.059-0.481-0.335-0.95c-0.862-1.405-1.788-2.746-2.65-4.108c0.054,0,0.054,0,0.075,0.042
	c0.979,1.471,1.846,2.844,2.506,3.858c-0.5-0.931-1.389-2.424-2.272-3.9c-0.026-0.181-0.309-0.649-0.707-1.227
	c-0.74-1.248-1.362-2.36-1.719-3.171l1.287,0.644c-1.559-2.61-6.624-9.333-6.715-8.942c-5.598-10.395-16.123-26.754-20.72-33.448
	c0.946,1.125,1.149,1.104,0.148-0.061c-1.112-1.727-2.432-3.478-3.405-4.877l-0.681-0.971V3.006
	c-2.81-5.286-2.299-0.098-4.183-0.162V2.85l-0.037,0.059L349,3.006l-0.165,0.213l-0.261,0.343c-0.356,0.458-0.559,0.708-0.734,0.708
	c-2.202,3.336-2.66,2.6-6.422,7.423c-0.165,0-0.021,0.724,0.426,0.402c-6.938,7.569-13.335,18.836-21.21,28.138
	c0.543-0.817,1.075-2.246,1.479-3.182c-5.438,7.782-10.632,15.17-15.069,22.529c0.287-0.915-0.149-0.87,1.043-2.799
	c-3.948,5.225-8.437,11.459-9.711,14.345c2.985-3.365-0.175-0.484,1.722-2.886c3.339-3.39-1.197,3.791-3.972,7.181h-0.224
	c-3.967,5.273-3.813,5.733-7.782,11.012c-2.729,2.85,1.937-2.881,0.628-1.897c-1.908,0.481-9.703,11.504-10.631,12.499
	c-0.75,1.402-1.945,3.315-1.541,3.315c-2.884,4.31-2.011,1.389-4.055,4.31l-6.452,11.917l-0.489,0.652
	c-0.556,0.154-3.188,2.676-1.176-0.615c-3.161,4.315-5.406,7.955-7.242,11.158c-0.529,0.593-0.889,1.487-1.288,2.24l-1.03,1.325
	l-0.641,0.484c0.178-0.072,0.386-0.165,0.484-0.285l-0.365,0.578h0.059v-0.027c0.035,0,0.165-0.069,0.224-0.093
	c0,0,0-0.043,0.061-0.043c0.075-0.005,0.178-0.114,0.38-0.202h0.032c0.633-0.311,1.705-0.817,3.19-1.471h0.042
	c0.333-0.114,0.745-0.303,1.149-0.49h0.061c1.649-0.737,3.693-1.564,6.058-2.517h0.083c0.561-0.229,1.192-0.41,1.814-0.692
	c0.037,0,0.069-0.016,0.069-0.016c0.665-0.208,1.259-0.487,1.964-0.695l0.032-0.016c1.373-0.527,2.817-1.046,4.353-1.546
	c-2.168,1.019,2.839,0.261-0.048,1.581c5.18-2.278,18.171-5.516,26.472-6.899c-5.702-0.316,9.248-2.631,10.397-3.685
	c1.873-0.293,3.762-0.578,5.726-0.785c1.969,0.024,0.559,0.862,3.075,0.71c10.163-1.607,19.996-1.554,29.266-1.362
	c0,0,0.17,0.184-0.341,0.218c8.62-0.279,22.37,1.895,30.937,2.833c-0.42,0.157,0.261,0.562-1.926,0.287
	c4.842,1.362,5.001,0.822,5.815,0.623c1.953,0.474,3.842,1.024,5.795,1.562l-1.953-0.032c6.593,1.2,12.158,4.251,19.459,6.359
	c0.069,0.42-1.452-0.162-2.533-0.415c5.593,2.027,11.483,4.943,16.581,7.127c0.819,0.487,1.671,0.939,2.554,1.434h0.021
	c-0.191,0.224-1.171-0.17-3.033-0.835c4.853,3.217,6.502,3.009,10.015,5.114c0.053,0.016,0.053,0.016,0.053,0.063
	c0.66,0.399,1.31,0.833,1.958,1.248c0.054,0,0.054,0.056,0.075,0.056c2.745,1.831,5.416,3.714,8.13,5.763
	c0.085,0.077,0.117,0.093,0.144,0.154c1.352,0.979,2.603,2.033,3.9,3.039c0.085,0.077,0.181,0.181,0.267,0.218
	c1.298,1.075,2.607,2.147,3.916,3.259c0.596,0.91,2.336,2.594,4.64,5.35c12.547,11.824,23.828,25.647,33.022,40.397
	c7.514,15.011,13.143,30.91,17.41,46.985c0.256,0.873,0.432,1.83,0.66,2.777c-0.026,4.741-2.575-8.08-2.575-4.385
	c0.926-0.502,1.825,5.646,3.911,15.947l-0.091,0.447c0.926,4.408,0.563,7.019,1.415,11.791l0.256-0.207
	c0.287,1.154,0.447,2.745,0.553,4.397c-0.659,1.37-0.468,1.785,0.054,1.785c0.102,5.587-0.394,11.908-0.394,11.908
	c1.144,5.071-0.469,8.024,0.074,14.282l-0.17-0.724c-1.054,8.247-0.926,17.506-2.512,20.518c-0.984,5.667-2.671,11.887-3.038,14.957
	l-0.059,0.021c-0.213,0.756-0.463,1.453-0.734,2.251v0.021c-0.213-0.149-0.287-0.819-0.287-1.49
	c-5.417,18.698-16.432,36.801-28.521,51.646c-0.989,1.171-1.984,2.278-3.043,3.422c-0.202,0.224-0.404,0.42-0.606,0.654
	c-2.044,2.225-4.183,4.459-6.449,6.673c-0.239,0.229-0.49,0.452-0.708,0.633c-2.262,2.203-4.624,4.406-7.104,6.529
	c-0.256,0.25-0.5,0.463-0.776,0.691c-1.235,1.038-2.47,2.112-3.789,3.145c-1.288,1.081-2.597,2.155-3.948,3.183
	c-0.298,0.234-0.564,0.484-0.904,0.681c-1.32,1.064-2.682,2.049-4.055,3.086l-0.059,0.027c-1.405,0.995-2.847,2.064-4.305,3.064
	c-0.319,0.202-0.628,0.447-0.984,0.719c-1.474,0.952-2.932,1.969-4.433,2.947c0,0,0,0.006-0.021,0.006
	c-1.521,1.006-3.027,1.99-4.635,2.916c-0.383,0.266-0.761,0.474-1.106,0.724c-1.575,0.958-3.155,1.932-4.768,2.868
	c-0.032,0.026-0.032,0.026-0.08,0.026c-1.617,0.952-3.283,1.889-4.964,2.814c-0.415,0.267-0.841,0.437-1.208,0.687
	c-1.714,0.921-3.438,1.868-5.172,2.757c-0.032,0.01-0.032,0.01-0.086,0.021c-1.708,0.905-3.517,1.799-5.342,2.74
	c-0.441,0.208-0.899,0.432-1.357,0.645c-1.776,0.878-3.677,1.756-5.57,2.671c0,0,0,0.011-0.027,0.011h-0.042
	c0,0-0.059,0.032-0.133,0.08h-0.021c-0.08,0.037-0.16,0.063-0.234,0.068c0,0-0.043,0-0.059,0.027
	c-0.09,0.048-0.202,0.085-0.356,0.154v0.016c-0.17,0.059-0.266,0.096-0.458,0.16c0,0-0.063,0.037-0.079,0.037
	c-0.165,0.079-0.356,0.144-0.548,0.175c-0.021,0-0.021,0.069-0.021,0.069c-0.234,0.032-0.437,0.106-0.671,0.197l-0.032,0.011
	c-0.266,0.085-0.5,0.181-0.809,0.303h-0.031c-0.554,0.208-1.16,0.41-1.842,0.665l-0.063,0.021c-0.681,0.202-1.405,0.442-2.214,0.665
	c-0.053,0.059-0.053,0.059-0.074,0.064c-0.819,0.25-1.655,0.489-2.586,0.739c0,0-0.054,0-0.085,0.048
	c-0.905,0.298-1.916,0.517-2.927,0.798c0,0-0.021,0.032-0.074,0.032c-1.043,0.239-2.134,0.596-3.268,0.841h-0.063
	c-1.16,0.298-2.362,0.591-3.629,0.862c-1.873,0.42-3.927,0.83-6.034,1.267h-0.032c-1.447,0.218-2.841,0.511-4.299,0.707
	c-0.097,0-0.097,0.037-0.139,0.037c-1.453,0.219-2.959,0.453-4.522,0.692c-0.043,0-0.086,0.016-0.171,0.016
	c-1.538,0.154-3.044,0.356-4.725,0.564c-0.032,0-0.106,0-0.208,0.026c-1.564,0.144-3.219,0.255-4.868,0.437h-0.224
	c-0.857,0.063-1.708,0.085-2.603,0.138c-6.593,0.208-13.223,0.048-19.768-0.372l-0.117-0.059c0,0-0.021,0.026-0.063,0.026
	c-9.887-0.639-19.475-1.979-28.207-3.751c-2.625-0.654-5.345-1.405-8.074-2.208l-0.038-0.037c-0.917-0.229-1.788-0.506-2.687-0.804
	c-2.724-0.899-5.454-1.836-8.205-2.953c-0.029-0.032-0.061-0.032-0.061-0.032c-0.947-0.313-1.836-0.708-2.746-1.096
	c-0.061-0.234-0.176-0.501-1.341-0.942c-2.152-0.724-4.342-1.591-6.452-2.517c-2.31-1.091-4.603-2.267-6.899-3.518
	c-0.085-0.016-0.162-0.074-0.245-0.106c-2.206-1.213-4.446-2.538-6.686-3.868c-0.074-0.101-0.178-0.111-0.271-0.176
	c-2.224-1.346-4.44-2.82-6.67-4.353c-0.042-0.117-0.157-0.133-0.245-0.181c-1.083-0.734-2.189-1.527-3.28-2.341
	c-0.104-0.048-0.163-0.112-0.255-0.145c-1.102-0.819-2.137-1.628-3.27-2.474l-0.048-0.011c-6.196-4.911-12.097-10.211-17.65-15.628
	c-0.816-0.841-1.602-1.66-2.408-2.496c-0.25-0.255-0.458-0.521-0.734-0.792c-0.601-0.58-1.168-1.203-1.74-1.82
	c-0.245-0.298-0.545-0.628-0.817-0.92c-0.556-0.634-1.149-1.235-1.727-1.921c-0.208-0.261-0.458-0.517-0.676-0.782
	c-1.596-1.814-3.259-3.704-4.794-5.678c-0.242-0.25-0.487-0.569-0.737-0.856c-0.505-0.708-1.107-1.421-1.658-2.107
	c-0.261-0.319-0.511-0.708-0.766-1.011c-0.551-0.724-1.102-1.469-1.663-2.161c-0.245-0.309-0.463-0.644-0.703-0.952
	c-0.812-1.027-1.543-2.091-2.36-3.182l-0.026-0.006c-0.724-1.054-1.482-2.128-2.219-3.214c-0.234-0.34-0.458-0.691-0.734-1.026
	c-0.54-0.793-1.035-1.554-1.591-2.342c-0.266-0.415-0.545-0.771-0.79-1.128c-0.524-0.819-1.008-1.645-1.559-2.464
	c-0.245-0.34-0.5-0.707-0.676-1.074c-0.769-1.187-1.498-2.336-2.227-3.544c0,0-0.067,0-0.067-0.021
	c-0.718-1.208-1.455-2.405-2.184-3.64c-0.218-0.352-0.42-0.75-0.66-1.16c-0.53-0.83-1.014-1.734-1.509-2.549
	c-0.248-0.474-0.513-0.931-0.731-1.389c-0.551-0.878-1.008-1.809-1.514-2.649c-0.218-0.426-0.468-0.809-0.691-1.277
	c-0.721-1.261-1.439-2.543-2.126-3.916l-7.154,31.873l0.338-1.56c-0.785,2.9-2.299,5.96-2.453,4.656l-1.562,5.773l-0.577-0.517
	c-1.591,4.826-1.548,9.307-3.041,13.383c-0.737,2.006-1.517,6.582-2.24,8.764v1.187c-0.415,1.373-0.266,0.537-0.915,2.245
	l2.418-0.409l0.873-0.149l3.116,0.352c-2.57-0.665-3.573-0.027-4.297-1.262l1.045-0.165c-0.072,0.357,0.059,0.234,0.224-0.026
	l0.931-0.17c2.386,0.059,6.452,1.187,8.87,0.611l4.472-1.484c0.46,0,0.91,0,1.386,0.037c-2.661,0.751-0.654,0.788-0.535,1.182
	c1.357-0.372,2.833-0.899,4.491-1.054l-2.006,1.319c3.464-1.841,11.523-0.553,13.976-1.207l-0.758,0.361
	c8.875-0.921-5.1,1.271,0.835,0.293c5.116-0.654,4.499-0.932,9.267-1.171c4.201-0.724,5.417,1.362,11.156,0.33l0.532,1.74
	l1.227,4.549c0.812,2.97,1.52,5.811,1.977,8.392c2.442,7.854,5.379,16.458,7.912,23.407c2.033,7.082-1.357-0.011,1.237,7.013
	c-0.665-0.67-0.769,0.469-0.992,1.197c0.737,0.921,3.674,13.255,3.118,7.327c1.322,5.209,2.799,10.685,4.332,16.245l2.392,8.301
	l1.243,4.146l0.016,0.191l0.087,0.915l0.208,0.83c0,0.66,0.338,1.479,0.521,2.054l-0.053,0.33v0.106l0.479,2.012
	c2.453-1.395,0.764-0.458,3.456-2.118l0.245-0.181l-0.045,0.042l0.072-0.096l0.431-0.319h0.074l0.301-0.17
	c4.273-3.044,12.079-7.492,20.542-11.445c-0.529-0.697-3.238,0.67-2.698-0.489c1.171-0.745,3.046-2.07,5.127-3.076
	c1.581,0.197,1.804,1.56,9.307-2.197c-1.421,2.251-12.797,6.241-8.804,5.763c-2.855,2.591-16.346,9.439-19.653,10.365
	c-6.175,4.368,5.252-2.469,4.499-0.841c5.983-3.123,8.5-5.023,17.759-9.876c-0.109-0.559-3.307,0.905,0.769-1.634
	c7.758-5.235,10.727-4.384,12.808-5.374c-1.104,0.676-2.756,1.538-3.961,2.267c5.667-2.352,7.226-4.049,13.095-6.869
	c2.261,0.569-9.208,4.773-10.919,6.694l4.685-1.075c8.996-4.374,1.878-2.368,11.256-6.667l-0.851,1.102l5.629-3.193
	c-0.181-0.574-1.819-0.744-6.693,1.831c2.586-2.927,4.47-2.427,12.137-6.662c2.188-2.027-3.262,1.751-3.794,1.069
	c-1.106-0.319,4.278-3.017,8.109-5.124c6.481-3.262,3.746-0.814,6.551-1.602c-1.155,0.724-6.04,3.325-5.741,2.581
	c-7.546,4.783,4.246-0.134-1.022,3.187c6.258-2.569,5.673-3.379,8.594-5.204c-1.708,0.714,0.623-1.255-0.873-0.83
	c1.112-0.898,2.038-1.559,2.906-2.085c0.489,0.042,1.005,0.042,1.495,0.063c1.069,1.442,2.298,3.134,6.693,5.837
	c-1.202-2.56,13.729,6.641,7.688,0.676c2.422,1.33,5.465,2.932,7.748,4.672c-3.092-0.841,3.783,3.422-1.197,1.267l3.448,2.325
	l-5.821-2.464c3.438,3.107,9.418,7.865,11.206,9.615c5.193,2.964-1.032-1.825,4.842,1.793c-2.293-0.872,1.054,1.862,3.565,3.518
	c-4.88-3.672,0.713-1.277,4.065,0.702c5.107,3.363,8.651,6.854,7.747,6.545l-4.416-2.107c2.767,1.379,0.846,1.155,4.507,3.246
	c1.356,0.239,4.166,1.112,5.826,1.33c3.32,1.938,5.226,4.087,6.406,4.693l-5.406-2.862c6.822,4.283,0.597,2.256,7.721,6.565
	l2.214,0.538c1.006,0.756,1.538,1.378,0.974,1.293c1.66,0.691,4.8,2.857,6.428,3.698l0.154,0.696
	c3.038,1.671,7.285,3.118,10.275,6.29c-2.097-2.879-3.507-2.331-8.163-6.082c-2.564-2.825,5.348,2.517,6.524,3.171
	c-0.484,0.432,1.372,1.692,3.735,3.146l1.894,1.085l0.128,0.091l0.074,0.016c-1.585,0.623,1.884,1.804,5.375,4.576l1.719-5.087
	l0.191-2.272l0.079-0.276l0.134-0.516l0.218-1.123c0.352-1.442,0.665-2.81,0.926-3.837c1.16-2.229,1.927-4.267,2.629-5.581
	l-0.367-1.831c2.011-1.122,1.921-8.258,3.783-12.754c-0.202,2.501,0.526,2.356,1.697-0.793c-2.469,3.979,0.559-7.599-0.622-6.503
	c2.819-8.136,0.946,2.336,2.543,0.16c0.224-4.374,3.182-9.003,2.81-12.09c-2.075,5.827-0.5-1.165-0.665-2.532
	c2.234-7.535,0.165,1.367,2.112-3.826c0.734-3.192,0.969-7.588-0.756-2.831c1.543-4.277,1.82-9.566,3.917-14.238
	c1.33-1.831-2.257,9.269-0.927,6.561c3.065-10.43-0.34-5.747,2.209-15.532c-1.623,4.022-1.825-0.351-0.953-5.209
	c3.448-10.626-0.872,4.858,1.288,1.021l1.069-4.31c3.049-5.593-1.452,13.318,1.229,7.938l0.883-4.772
	c0.102,1.101,0.325,2.852,1.251,1.021c-0.602-1.427,2.868-10.93,2.91-11.84c-0.5-1.234-0.872,3.858-1.267,2.89
	c0.586-2.496,0.734-4.379,1.054-6.561c0.149-0.899,0.298-1.836,0.517-2.863c3.698-0.378,0.984-1.133,6.363-1.771l-0.511,0.639
	c19.896-3.821,44.649-8.759,61.362-14.144c3.262,0.229,9.647-0.958,19.688-2.357c-4.411,0.591-0.335-0.793,2.113-1.426h4.932
	c5.88-0.559,13.309-2.959,18.533-4.485c0.979,0,1.331,0.122,1.65,0.346c5.241-0.404,5.203-1.586,7.162-2.192h3.512l0.617-0.756
	l3.985-0.969l1.006-0.244l0.511-0.106l0.159-0.011h0.021h0.032c2.112-0.532,3.118-0.819,6.141-1.857L589.504,383.606z
	 M380.362,47.229c0.506,0.785,1.091,1.676,1.729,2.658C381.42,48.93,380.792,47.964,380.362,47.229 M169.687,415.532
	c-0.064-0.133-0.167-0.329-0.271-0.537c0.141,0.006,0.271,0.048,0.418,0.059L169.687,415.532z M172.624,398.723
	c-0.093-0.063-0.187-0.063-0.328,0.026c-0.338,1.341,1.081,2.555,0.852,3.347l-1.149,3.289c-0.04-1.979,1.224-10.935,2.581-12.866
	c0.149-0.261,0.269-0.378,0.373-0.378L172.624,398.723z M199.197,413.941c-0.849,0.059-1.591,0.091-2.221,0.176l2.767-0.431
	C199.54,413.782,199.343,413.845,199.197,413.941 M246.237,497.981L246.237,497.981l0.038-0.292l0.093,0.372
	C246.357,498.061,246.275,497.992,246.237,497.981 M455.953,417.293c0-0.091,0.08-0.202,0.08-0.314
	C456.255,417.059,456.266,417.15,455.953,417.293 M349.101,2.844L349.101,2.844L351.485,0L349.101,2.844z M188.605,415.84
	c-0.191,0.165-0.383,0.261-0.535,0.389L188.605,415.84z M178.405,381.568c0.255-0.691,0.399-1.362,0.463-1.963L178.405,381.568z"/>
</svg>
