<?xml version="1.0" encoding="utf-8"?>
<!-- Generator: Adobe Illustrator 27.8.0, SVG Export Plug-In . SVG Version: 6.00 Build 0)  -->
<svg version="1.1" id="Layer_1" xmlns="http://www.w3.org/2000/svg" xmlns:xlink="http://www.w3.org/1999/xlink" x="0px" y="0px"
	 viewBox="0 0 512 512" style="enable-background:new 0 0 512 512;" xml:space="preserve">
<path d="M320,42.67H192c-47.15,0-85.33,38.19-85.33,85.33v213.33c0,11.73,9.6,21.33,21.33,21.33h256c11.73,0,21.33-9.6,21.33-21.33
	V128C405.33,80.85,367.15,42.67,320,42.67z M335.15,203.95l-57.81,57.81c-10.45,10.45-24.11,15.57-37.76,15.57
	c-13.65,0-27.31-5.12-37.76-15.57l-24.96-24.96c-8.32-8.32-8.32-21.76,0-30.08s21.76-8.32,30.08,0l24.96,24.96
	c4.27,4.27,10.88,4.05,15.15,0l57.81-57.81c8.32-8.32,21.76-8.32,30.08,0c8.32,8.32,8.32,21.76,0,30.08L335.15,203.95z M512,341.33
	V384c0,47.15-38.19,85.33-85.33,85.33H85.33C38.19,469.33,0,431.15,0,384v-42.67c0-39.68,27.31-72.75,64-82.35v82.35
	c0,35.2,28.8,64,64,64h256c35.2,0,64-28.8,64-64v-82.35C484.69,268.59,512,301.65,512,341.33z"/>
</svg>
