<?xml version="1.0" encoding="utf-8"?>
<!-- Generator: Adobe Illustrator 27.8.0, SVG Export Plug-In . SVG Version: 6.00 Build 0)  -->
<svg version="1.1" id="圖層_1" xmlns="http://www.w3.org/2000/svg" xmlns:xlink="http://www.w3.org/1999/xlink" x="0px" y="0px"
	 viewBox="0 0 512 512" style="enable-background:new 0 0 512 512;" xml:space="preserve">
<path d="M197.33,0h-160C16.75,0,0,16.75,0,37.33v96c0,20.59,16.75,37.34,37.33,37.34h160c20.59,0,37.34-16.75,37.34-37.34v-96
	C234.67,16.75,217.92,0,197.33,0z"/>
<path d="M197.33,213.33h-160C16.75,213.33,0,230.08,0,250.67v224C0,495.25,16.75,512,37.33,512h160c20.59,0,37.34-16.75,37.34-37.33
	v-224C234.67,230.08,217.92,213.33,197.33,213.33z"/>
<path d="M474.67,341.33h-160c-20.59,0-37.34,16.75-37.34,37.34v96c0,20.59,16.75,37.33,37.34,37.33h160
	c20.59,0,37.33-16.75,37.33-37.33v-96C512,358.08,495.25,341.33,474.67,341.33z"/>
<path d="M474.67,0h-160c-20.59,0-37.34,16.75-37.34,37.33v224c0,20.59,16.75,37.34,37.34,37.34h160c20.59,0,37.33-16.75,37.33-37.34
	v-224C512,16.75,495.25,0,474.67,0z"/>
</svg>
