<?xml version="1.0" encoding="utf-8"?>
<!-- Generator: Adobe Illustrator 27.8.0, SVG Export Plug-In . SVG Version: 6.00 Build 0)  -->
<svg version="1.1" id="Layer_1" xmlns="http://www.w3.org/2000/svg" xmlns:xlink="http://www.w3.org/1999/xlink" x="0px" y="0px"
	 viewBox="0 0 25.32 25.32" style="enable-background:new 0 0 25.32 25.32;" xml:space="preserve">
<g id="Layer_2">
	<path d="M12.66,0C5.67,0,0,5.67,0,12.66s5.67,12.66,12.66,12.66s12.66-5.67,12.66-12.66C25.31,5.67,19.65,0.01,12.66,0z
		 M16.93,16.93c-0.45,0.45-1.18,0.45-1.63,0l-3.45-3.45c-0.22-0.22-0.34-0.51-0.34-0.81V5.75c0-0.64,0.52-1.15,1.15-1.15
		s1.15,0.52,1.15,1.15v6.43l3.12,3.12C17.37,15.75,17.37,16.48,16.93,16.93L16.93,16.93z"/>
</g>
</svg>
