<?xml version="1.0" encoding="utf-8"?>
<!-- Generator: Adobe Illustrator 27.8.0, SVG Export Plug-In . SVG Version: 6.00 Build 0)  -->
<svg version="1.1" id="圖層_1" xmlns="http://www.w3.org/2000/svg" xmlns:xlink="http://www.w3.org/1999/xlink" x="0px" y="0px"
	 viewBox="0 0 512 512" style="enable-background:new 0 0 512 512;" xml:space="preserve">
<path d="M405.33,256c-11.8,0-21.33,9.56-21.33,21.33V448c0,11.75-9.56,21.33-21.33,21.33H64c-11.78,0-21.33-9.58-21.33-21.33V149.33
	C42.67,137.58,52.22,128,64,128h170.67c11.8,0,21.33-9.56,21.33-21.33s-9.54-21.33-21.33-21.33H64c-35.29,0-64,28.71-64,64V448
	c0,35.29,28.71,64,64,64h298.67c35.29,0,64-28.71,64-64V277.33C426.67,265.54,417.13,256,405.33,256z"/>
<path d="M200.02,236.57c-1.49,1.49-2.5,3.39-2.92,5.44l-15.08,75.43c-0.7,3.5,0.41,7.1,2.92,9.64c2.03,2.03,4.76,3.11,7.55,3.11
	c0.68,0,1.39-0.06,2.09-0.21l75.41-15.08c2.09-0.43,3.99-1.43,5.46-2.92l168.79-168.79l-75.41-75.41L200.02,236.57z"/>
<path d="M496.38,15.62c-20.8-20.8-54.63-20.8-75.41,0l-29.53,29.53l75.41,75.41l29.53-29.53C506.45,80.98,512,67.58,512,53.33
	S506.45,25.69,496.38,15.62z"/>
</svg>
