<?xml version="1.0" encoding="utf-8"?>
<!-- Generator: Adobe Illustrator 27.8.0, SVG Export Plug-In . SVG Version: 6.00 Build 0)  -->
<svg version="1.1" id="Layer_1" xmlns="http://www.w3.org/2000/svg" xmlns:xlink="http://www.w3.org/1999/xlink" x="0px" y="0px"
	 viewBox="0 0 10.75 10.99" style="enable-background:new 0 0 10.75 10.99;" xml:space="preserve">
<path d="M9.41,0c0.74,0,1.34,0.61,1.34,1.34v8.3c0,0.74-0.6,1.34-1.34,1.34H1.34C0.6,10.99,0,10.38,0,9.64v-8.3C0,0.61,0.6,0,1.34,0
	h1.34H9.41z M1.79,7.29c-0.25,0-0.45,0.2-0.45,0.45c0,0.25,0.2,0.45,0.45,0.45h7.17c0.25,0,0.45-0.2,0.45-0.45
	c0-0.25-0.2-0.45-0.45-0.45H1.79L1.79,7.29z M1.79,5.05c-0.25,0-0.45,0.2-0.45,0.45c0,0.25,0.2,0.45,0.45,0.45h7.17
	c0.25,0,0.45-0.2,0.45-0.45c0-0.25-0.2-0.45-0.45-0.45H1.79L1.79,5.05z M1.79,2.81c-0.25,0-0.45,0.2-0.45,0.45
	c0,0.25,0.2,0.45,0.45,0.45h7.17c0.25,0,0.45-0.2,0.45-0.45c0-0.25-0.2-0.45-0.45-0.45H1.79z"/>
</svg>
