<?xml version="1.0" encoding="utf-8"?>
<!-- Generator: Adobe Illustrator 27.8.0, SVG Export Plug-In . SVG Version: 6.00 Build 0)  -->
<svg version="1.1" id="Layer_1" xmlns="http://www.w3.org/2000/svg" xmlns:xlink="http://www.w3.org/1999/xlink" x="0px" y="0px"
	 viewBox="0 0 512 512" style="enable-background:new 0 0 512 512;" xml:space="preserve">
<g>
	<g>
		<path d="M419.59,143.72h-44.87l-24.77-37.39c-9.35-14.02-25.71-22.43-42.53-22.43H204.59c-16.83,0-33.18,8.41-42.53,22.43
			l-24.77,37.39H92.41c-28.51,0-51.41,22.9-51.41,51.41v181.35c0,28.51,22.9,51.41,51.41,51.41h327.17
			c28.51,0,51.41-22.9,51.41-51.41V195.13C471,166.62,448.1,143.72,419.59,143.72z M256,385.82c-64.03,0-115.91-51.88-115.91-115.91
			S191.97,154.47,256,154.47s115.91,51.88,115.91,115.91C371.91,333.94,320.03,385.82,256,385.82z M413.04,216.16
			c-0.47,0-0.93,0-1.87,0h-18.7c-8.41-0.47-14.96-7.48-14.49-15.89c0.47-7.95,6.54-14.02,14.49-14.49h18.7
			c8.41-0.47,15.42,6.08,15.89,14.49C427.53,208.68,421.46,215.69,413.04,216.16z"/>
	</g>
</g>
<g>
	<g>
		<path d="M256,205.88c-35.52,0-64.5,28.98-64.5,64.5s28.98,64.03,64.5,64.03s64.5-28.98,64.5-64.5S291.52,205.88,256,205.88z"/>
	</g>
</g>
</svg>
