<?xml version="1.0" encoding="utf-8"?>
<!-- Generator: Adobe Illustrator 27.8.0, SVG Export Plug-In . SVG Version: 6.00 Build 0)  -->
<svg version="1.1" id="Layer_1" xmlns="http://www.w3.org/2000/svg" xmlns:xlink="http://www.w3.org/1999/xlink" x="0px" y="0px"
	 viewBox="0 0 512 512" style="enable-background:new 0 0 512 512;" xml:space="preserve">
<path d="M341.33,58.67c0,46.14-60.16,103.49-90.13,127.53c-9.66,7.75-23.41,7.75-33.07,0C188.16,162.13,128,104.81,128,58.67
	C126.6,27.76,150.44,1.54,181.33,0c30.9,1.54,54.73,27.76,53.33,58.67C233.27,27.76,257.1,1.54,288,0
	C318.9,1.54,342.73,27.76,341.33,58.67z M497.88,263.47L333.61,442.86c-40.44,44.09-97.53,69.18-157.35,69.14H85.33
	C38.21,512,0,473.79,0,426.67V320c0-47.13,38.21-85.33,85.33-85.33h166.12c26.13,0.05,47.28,21.28,47.23,47.41
	c-0.01,3.32-0.36,6.63-1.06,9.87c-4.73,19.75-21.23,34.48-41.39,36.95l-88.81,12.44c-11.66,1.67-19.75,12.47-18.09,24.13l0,0
	c1.66,11.66,12.46,19.77,24.13,18.11l90.71-12.8c44.15-6.5,76.93-44.27,77.16-88.9c-0.1-4.57-0.57-9.12-1.39-13.61l75.56-79.72
	c20.74-22.46,55.73-23.96,78.31-3.35c22.46,20.58,24.26,55.37,4.05,78.17V263.47z"/>
</svg>
