<?xml version="1.0" encoding="utf-8"?>
<!-- Generator: Adobe Illustrator 27.8.0, SVG Export Plug-In . SVG Version: 6.00 Build 0)  -->
<svg version="1.1" id="圖層_1" xmlns="http://www.w3.org/2000/svg" xmlns:xlink="http://www.w3.org/1999/xlink" x="0px" y="0px"
	 viewBox="0 0 477.92 461.87" style="enable-background:new 0 0 477.92 461.87;" xml:space="preserve">
<g id="Layer_21">
	<path d="M453.12,276.03c11.6-12.32,24.8-26.32,24.8-45.12s-13.2-32.8-24.8-45.12c-6.56-7.04-13.44-14.24-15.28-20
		c-2-6.24-0.72-16.56,0.56-26.48c2.08-16.56,4.48-35.28-6.08-49.92c-10.72-14.8-29.28-18.32-45.68-21.44
		c-9.68-1.84-19.68-3.76-24.72-7.44c-4.96-3.68-9.76-12.56-14.48-21.2c-8-14.88-17.12-31.68-34.64-37.44
		c-16.96-5.52-33.76,2.48-48.64,9.52c-9.12,4.32-18.56,8.8-25.2,8.8s-16.16-4.48-25.2-8.8C198.88,4.35,182-3.73,165.12,1.87
		c-17.52,5.76-26.64,22.56-34.64,37.44c-4.64,8.64-9.44,17.52-14.48,21.2c-5.12,3.76-15.04,5.6-24.72,7.44
		c-16.4,3.12-34.96,6.64-45.68,21.44c-10.56,14.64-8.16,33.36-6.08,49.92c1.28,9.92,2.56,20.24,0.56,26.48
		c-1.84,5.68-8.64,12.96-15.28,20C13.2,198.11,0,212.11,0,230.91s13.2,32.8,24.8,45.12c6.56,7.04,13.44,14.24,15.28,20
		c2,6.24,0.72,16.56-0.56,26.48c-2.08,16.56-4.48,35.28,6.08,49.92c10.72,14.8,29.28,18.32,45.68,21.44
		c9.68,1.84,19.68,3.76,24.72,7.44c4.96,3.68,9.76,12.56,14.48,21.2c8,14.88,17.12,31.68,34.64,37.44
		c16.96,5.52,33.76-2.48,48.64-9.52c9.12-4.32,18.56-8.8,25.2-8.8c6.64,0,16.16,4.48,25.2,8.8c11.36,5.44,24,11.44,36.8,11.44
		c3.92,0,7.84-0.56,11.84-1.84c17.52-5.76,26.64-22.56,34.64-37.44c4.64-8.64,9.44-17.52,14.48-21.2c5.12-3.76,15.04-5.6,24.72-7.44
		c16.4-3.12,34.96-6.64,45.68-21.44c10.56-14.64,8.16-33.36,6.08-49.92c-1.28-9.92-2.56-20.24-0.56-26.48
		C439.68,290.35,446.48,283.07,453.12,276.03L453.12,276.03z M178.88,270.91c0,7.2-4.8,13.52-11.76,15.44
		c-1.44,0.4-2.88,0.56-4.24,0.56c-5.52,0-10.8-2.88-13.68-7.76l-18.32-30.56v22.32c0,8.8-7.2,16-16,16s-16-7.2-16-16v-80
		c0-7.2,4.8-13.52,11.76-15.44c6.88-1.92,14.32,1.04,18,7.2l18.32,30.56v-22.32c0-8.8,7.2-16,16-16s16,7.2,16,16v80H178.88z
		 M238.88,214.91c8.8,0,16,7.2,16,16c0,8.8-7.2,16-16,16h-12v8h32.08c8.8,0,16,7.2,16,16s-7.2,16-16,16h-48.08c-8.8,0-16-7.2-16-16
		v-80c0-8.8,7.2-16,16-16h48.08c8.8,0,16,7.2,16,16s-7.2,16-16,16h-32.08v8H238.88z M378.96,270.91c0,6.88-4.4,12.96-10.88,15.12
		c-1.68,0.64-3.36,0.88-5.12,0.88c-4.88,0-9.6-2.24-12.72-6.32l-19.36-25.36l-19.28,25.36c-4.16,5.44-11.36,7.6-17.84,5.44
		s-10.88-8.32-10.88-15.2v-79.92c0-8.8,7.2-16,16-16s16,7.2,16,16v32.64l3.28-4.32c6.08-7.92,19.36-7.92,25.44,0l3.36,4.32v-32.64
		c0-8.8,7.2-16,16-16s16,7.2,16,16L378.96,270.91z"/>
</g>
</svg>
