<?xml version="1.0" encoding="utf-8"?>
<!-- Generator: Adobe Illustrator 27.8.0, SVG Export Plug-In . SVG Version: 6.00 Build 0)  -->
<svg version="1.1" id="Capa_1" xmlns="http://www.w3.org/2000/svg" xmlns:xlink="http://www.w3.org/1999/xlink" x="0px" y="0px"
	 viewBox="0 0 512 512" style="enable-background:new 0 0 512 512;" xml:space="preserve">
<g>
	<g>
		<path d="M336,32h-34.75C294.66,13.38,276.86,0,256,0s-38.66,13.38-45.28,32H176c-8.83,0-16,7.17-16,16v64c0,8.83,7.17,16,16,16
			h160c8.83,0,16-7.17,16-16V48C352,39.17,344.83,32,336,32z"/>
	</g>
</g>
<g>
	<g>
		<path d="M416,64h-32v48c0,26.46-21.54,48-48,48H176c-26.46,0-48-21.54-48-48V64H96c-17.63,0-32,14.37-32,32v384
			c0,17.95,14.05,32,32,32h320c17.95,0,32-14.05,32-32V96C448,78.05,433.95,64,416,64z M251.33,347.33l-64,64
			c-3.14,3.1-7.23,4.67-11.33,4.67s-8.19-1.57-11.33-4.67l-32-32c-6.24-6.24-6.24-16.38,0-22.62c6.24-6.24,16.38-6.24,22.62,0
			l20.7,20.67l52.67-52.67c6.24-6.24,16.38-6.24,22.62,0S257.57,341.06,251.33,347.33z M251.33,219.33l-64,64
			c-3.14,3.1-7.23,4.67-11.33,4.67s-8.19-1.57-11.33-4.67l-32-32c-6.24-6.24-6.24-16.38,0-22.62c6.24-6.24,16.38-6.24,22.62,0
			l20.7,20.67l52.67-52.67c6.24-6.24,16.38-6.24,22.62,0C257.54,202.94,257.57,213.06,251.33,219.33z M368,384h-64
			c-8.83,0-16-7.17-16-16s7.17-16,16-16h64c8.83,0,16,7.17,16,16S376.83,384,368,384z M368,256h-64c-8.83,0-16-7.17-16-16
			s7.17-16,16-16h64c8.83,0,16,7.17,16,16S376.83,256,368,256z"/>
	</g>
</g>
</svg>
