<?xml version="1.0" encoding="utf-8"?>
<!-- Generator: Adobe Illustrator 27.8.0, SVG Export Plug-In . SVG Version: 6.00 Build 0)  -->
<svg version="1.1" id="Filled" xmlns="http://www.w3.org/2000/svg" xmlns:xlink="http://www.w3.org/1999/xlink" x="0px" y="0px"
	 viewBox="0 0 512 512" style="enable-background:new 0 0 512 512;" xml:space="preserve">
<path d="M367.87,85.33c-16.66-16.66-43.68-16.66-60.34,0.01c-8,8-12.49,18.85-12.49,30.16v33.83H192
	c-105.99,0.12-191.88,86.01-192,192v149.33C0,502.45,9.55,512,21.33,512s21.33-9.55,21.33-21.33c0.07-70.66,57.34-127.93,128-128
	h124.37v33.83c0.01,23.56,19.11,42.66,42.68,42.66c11.31,0,22.16-4.5,30.16-12.49l125.42-125.42c24.98-24.99,24.98-65.5,0-90.5
	L367.87,85.33z"/>
</svg>
