<?xml version="1.0" encoding="UTF-8"?><svg id="Layer_1" xmlns="http://www.w3.org/2000/svg" viewBox="0 0 14.33 14.33"><path d="m.45,0h5.37c.25,0,.45.2.45.45v5.37c0,.25-.2.45-.45.45H.45c-.25,0-.45-.2-.45-.45V.45c0-.25.2-.45.45-.45H.45Zm7.39,12.99h5.82c.37,0,.67.3.67.67s-.3.67-.67.67h-5.82c-.37,0-.67-.3-.67-.67s.3-.67.67-.67h0Zm0-4.93h5.82c.37,0,.67.3.67.67s-.3.67-.67.67h-5.82c-.37,0-.67-.3-.67-.67s.3-.67.67-.67h0Zm0,2.46h5.82c.37,0,.67.3.67.67s-.3.67-.67.67h-5.82c-.37,0-.67-.3-.67-.67s.3-.67.67-.67h0ZM.45,8.06h5.37c.25,0,.45.2.45.45v5.38c0,.25-.2.45-.45.45H.45c-.25,0-.45-.2-.45-.45v-5.38c0-.25.2-.45.45-.45H.45Zm7.39-3.13h5.82c.37,0,.67.3.67.67s-.3.67-.67.67h-5.82c-.37,0-.67-.3-.67-.67s.3-.67.67-.67h0Zm0-4.93h5.82c.37,0,.67.3.67.67s-.3.67-.67.67h-5.82c-.37,0-.67-.3-.67-.67s.3-.67.67-.67h0Zm0,2.46h5.82c.37,0,.67.3.67.67s-.3.67-.67.67h-5.82c-.37,0-.67-.3-.67-.67s.3-.67.67-.67Z" style="fill:#91746c; fill-rule:evenodd; stroke-width:0px;"/></svg>