<?xml version="1.0" encoding="UTF-8"?><svg id="Layer_1" xmlns="http://www.w3.org/2000/svg" viewBox="0 0 14.33 14.33"><path d="m8.51,7.61h4.93c.49,0,.9.41.9.9v4.93c0,.49-.4.9-.9.9h-4.93c-.49,0-.9-.4-.9-.9v-4.93c0-.49.4-.9.9-.9h0Zm0-7.61h4.93c.49,0,.9.4.9.89v4.93c0,.49-.4.9-.9.9h-4.93c-.49,0-.9-.4-.9-.9V.89c0-.49.4-.89.9-.89h0ZM.9,0h4.93c.49,0,.9.4.9.89v4.93c0,.49-.4.9-.9.9H.9c-.49,0-.9-.4-.9-.9V.89c0-.49.4-.89.9-.89h0Zm0,7.61h4.93c.49,0,.9.41.9.9v4.93c0,.49-.4.9-.9.9H.9c-.49,0-.9-.4-.9-.9v-4.93c0-.49.4-.9.9-.9Z" style="fill:#fff; stroke-width:0px;"/></svg>