<?xml version="1.0" encoding="UTF-8"?><svg id="Layer_1" xmlns="http://www.w3.org/2000/svg" viewBox="0 0 14.33 14.33"><path d="m13.4.6h-6.85c-.52,0-.93.4-.93.9s.42.9.93.9h6.85c.52,0,.93-.4.93-.9s-.42-.9-.93-.9Z" style="fill:#331919; stroke-width:0px;"/><path d="m10.9,4.18h-4.36c-.52,0-.93.4-.93.9s.42.9.93.9h4.36c.52,0,.93-.4.93-.9s-.42-.9-.93-.9Z" style="fill:#331919; stroke-width:0px;"/><path d="m8.41,7.76h-1.87c-.52,0-.93.4-.93.9s.42.9.93.9h1.87c.52,0,.93-.4.93-.9s-.42-.9-.93-.9Z" style="fill:#331919; stroke-width:0px;"/><path d="m5.09,11h-1.35V.9c0-.49-.42-.9-.93-.9s-.93.4-.93.9v10.1H.62c-.34,0-.62.27-.62.6,0,.16.07.31.18.42l2.23,2.14c.24.23.64.23.88,0l2.23-2.14c.24-.23.24-.61,0-.84-.12-.11-.28-.17-.44-.17h0Z" style="fill:#331919; stroke-width:0px;"/></svg>